<mxfile host="app.diagrams.net" modified="2023-05-09T13:29:32.645Z" agent="Mozilla/5.0 (Windows NT 10.0; Win64; x64) AppleWebKit/537.36 (KHTML, like Gecko) Chrome/111.0.0.0 Safari/537.36" etag="9fiv0w07BqVPNaV8ThcD" version="21.2.0" type="device" pages="4">
  <diagram id="iJ-Jv0obQQe6eE2J4Dh-" name="Solution">
    <mxGraphModel dx="3544" dy="-9" grid="1" gridSize="10" guides="1" tooltips="1" connect="1" arrows="1" fold="1" page="1" pageScale="1" pageWidth="850" pageHeight="1100" math="0" shadow="0">
      <root>
        <mxCell id="0" />
        <mxCell id="1" parent="0" />
        <mxCell id="bVb_GX9Cb-DCjAQpeH2n-222" value="AWS Account" style="points=[[0,0],[0.25,0],[0.5,0],[0.75,0],[1,0],[1,0.25],[1,0.5],[1,0.75],[1,1],[0.75,1],[0.5,1],[0.25,1],[0,1],[0,0.75],[0,0.5],[0,0.25]];outlineConnect=0;gradientColor=none;html=1;whiteSpace=wrap;fontSize=12;fontStyle=0;container=1;pointerEvents=0;collapsible=0;recursiveResize=0;shape=mxgraph.aws4.group;grIcon=mxgraph.aws4.group_account;strokeColor=#FF3333;fillColor=none;verticalAlign=top;align=left;spacingLeft=30;fontColor=#CD2264;dashed=0;labelPosition=center;verticalLabelPosition=middle;" parent="1" vertex="1">
          <mxGeometry x="-440" y="2120" width="2170" height="1290" as="geometry" />
        </mxCell>
        <mxCell id="bVb_GX9Cb-DCjAQpeH2n-265" value="" style="swimlane;startSize=0;" parent="bVb_GX9Cb-DCjAQpeH2n-222" vertex="1">
          <mxGeometry x="40" y="50" width="390" height="980" as="geometry" />
        </mxCell>
        <mxCell id="bVb_GX9Cb-DCjAQpeH2n-266" value="EventBridge" style="sketch=0;points=[[0,0,0],[0.25,0,0],[0.5,0,0],[0.75,0,0],[1,0,0],[0,1,0],[0.25,1,0],[0.5,1,0],[0.75,1,0],[1,1,0],[0,0.25,0],[0,0.5,0],[0,0.75,0],[1,0.25,0],[1,0.5,0],[1,0.75,0]];outlineConnect=0;fontColor=#232F3E;gradientColor=#FF4F8B;gradientDirection=north;fillColor=#BC1356;strokeColor=#ffffff;dashed=0;verticalLabelPosition=bottom;verticalAlign=top;align=left;html=1;fontSize=12;fontStyle=0;aspect=fixed;shape=mxgraph.aws4.resourceIcon;resIcon=mxgraph.aws4.eventbridge;" parent="bVb_GX9Cb-DCjAQpeH2n-265" vertex="1">
          <mxGeometry width="50" height="50" as="geometry" />
        </mxCell>
        <mxCell id="bVb_GX9Cb-DCjAQpeH2n-268" value="2) Run Restart on&amp;nbsp;&lt;br&gt;&lt;span style=&quot;text-indent: -0.25in; font-size: 9pt; font-family: Helvetica, sans-serif; background-image: initial; background-position: initial; background-size: initial; background-repeat: initial; background-attachment: initial; background-origin: initial; background-clip: initial;&quot;&gt;Specific&lt;/span&gt;&lt;span style=&quot;text-indent: -0.25in; font-size: 9pt; font-family: Helvetica, sans-serif;&quot;&gt; &lt;span style=&quot;background-image: initial; background-position: initial; background-size: initial; background-repeat: initial; background-attachment: initial; background-origin: initial; background-clip: initial;&quot;&gt;AutoScalingGroup&lt;/span&gt; &lt;br&gt;from External System&lt;/span&gt;&lt;p class=&quot;MsoListParagraph&quot;&gt;&lt;/p&gt;" style="html=1;dashed=0;whitespace=wrap;shape=mxgraph.dfd.start;fillColor=#dae8fc;strokeColor=#6c8ebf;" parent="bVb_GX9Cb-DCjAQpeH2n-265" vertex="1">
          <mxGeometry x="10" y="580" width="146" height="60" as="geometry" />
        </mxCell>
        <mxCell id="bVb_GX9Cb-DCjAQpeH2n-269" value="PutEvent" style="sketch=0;outlineConnect=0;fontColor=#232F3E;gradientColor=none;fillColor=#B0084D;strokeColor=none;dashed=0;verticalLabelPosition=bottom;verticalAlign=top;align=center;html=1;fontSize=12;fontStyle=0;aspect=fixed;pointerEvents=1;shape=mxgraph.aws4.event_resource;" parent="bVb_GX9Cb-DCjAQpeH2n-265" vertex="1">
          <mxGeometry x="170" y="868" width="78" height="78" as="geometry" />
        </mxCell>
        <mxCell id="bVb_GX9Cb-DCjAQpeH2n-270" value="Rule" style="sketch=0;outlineConnect=0;fontColor=#232F3E;gradientColor=none;fillColor=#B0084D;strokeColor=none;dashed=0;verticalLabelPosition=bottom;verticalAlign=top;align=center;html=1;fontSize=12;fontStyle=0;aspect=fixed;pointerEvents=1;shape=mxgraph.aws4.rule_3;" parent="bVb_GX9Cb-DCjAQpeH2n-265" vertex="1">
          <mxGeometry x="288" y="873" width="78" height="68" as="geometry" />
        </mxCell>
        <mxCell id="bVb_GX9Cb-DCjAQpeH2n-271" style="edgeStyle=orthogonalEdgeStyle;rounded=0;orthogonalLoop=1;jettySize=auto;html=1;" parent="bVb_GX9Cb-DCjAQpeH2n-265" source="bVb_GX9Cb-DCjAQpeH2n-269" target="bVb_GX9Cb-DCjAQpeH2n-270" edge="1">
          <mxGeometry relative="1" as="geometry">
            <mxPoint x="226" y="-220.9473684210525" as="targetPoint" />
          </mxGeometry>
        </mxCell>
        <mxCell id="bVb_GX9Cb-DCjAQpeH2n-272" value="3) Run Restart on&amp;nbsp;&lt;br&gt;&lt;div style=&quot;text-indent: 0px;&quot;&gt;&lt;span style=&quot;background: initial; font-size: 9pt; text-indent: -0.25in; font-family: Helvetica, sans-serif;&quot;&gt;Target&lt;/span&gt;&lt;span style=&quot;background-color: initial; font-size: 9pt; text-indent: -0.25in; font-family: Helvetica, sans-serif;&quot;&gt; &lt;span style=&quot;background-image: initial; background-position: initial; background-size: initial; background-repeat: initial; background-attachment: initial; background-origin: initial; background-clip: initial;&quot;&gt;Instance&lt;/span&gt;&lt;/span&gt;&lt;/div&gt;&lt;span style=&quot;text-indent: -0.25in; font-size: 9pt; font-family: Helvetica, sans-serif;&quot;&gt;&lt;span style=&quot;background-image: initial; background-position: initial; background-size: initial; background-repeat: initial; background-attachment: initial; background-origin: initial; background-clip: initial;&quot;&gt;from&amp;nbsp;&lt;/span&gt;&lt;/span&gt;&lt;span style=&quot;text-indent: -0.25in; background-image: initial; background-position: initial; background-size: initial; background-repeat: initial; background-attachment: initial; background-origin: initial; background-clip: initial;&quot;&gt;External System&lt;/span&gt;&lt;p class=&quot;MsoListParagraph&quot;&gt;&lt;/p&gt;" style="html=1;dashed=0;whitespace=wrap;shape=mxgraph.dfd.start;fillColor=#dae8fc;strokeColor=#6c8ebf;" parent="bVb_GX9Cb-DCjAQpeH2n-265" vertex="1">
          <mxGeometry x="27.5" y="866" width="128.5" height="82" as="geometry" />
        </mxCell>
        <mxCell id="lx2OKLv6R97FphPEtWig-1" value="PutEvent" style="sketch=0;outlineConnect=0;fontColor=#232F3E;gradientColor=none;fillColor=#B0084D;strokeColor=none;dashed=0;verticalLabelPosition=bottom;verticalAlign=top;align=center;html=1;fontSize=12;fontStyle=0;aspect=fixed;pointerEvents=1;shape=mxgraph.aws4.event_resource;" parent="bVb_GX9Cb-DCjAQpeH2n-265" vertex="1">
          <mxGeometry x="150" y="180" width="78" height="78" as="geometry" />
        </mxCell>
        <mxCell id="lx2OKLv6R97FphPEtWig-2" value="Rule" style="sketch=0;outlineConnect=0;fontColor=#232F3E;gradientColor=none;fillColor=#B0084D;strokeColor=none;dashed=0;verticalLabelPosition=bottom;verticalAlign=top;align=center;html=1;fontSize=12;fontStyle=0;aspect=fixed;pointerEvents=1;shape=mxgraph.aws4.rule_3;" parent="bVb_GX9Cb-DCjAQpeH2n-265" vertex="1">
          <mxGeometry x="288" y="185" width="78" height="68" as="geometry" />
        </mxCell>
        <mxCell id="lx2OKLv6R97FphPEtWig-3" style="edgeStyle=orthogonalEdgeStyle;rounded=0;orthogonalLoop=1;jettySize=auto;html=1;" parent="bVb_GX9Cb-DCjAQpeH2n-265" source="lx2OKLv6R97FphPEtWig-1" target="lx2OKLv6R97FphPEtWig-2" edge="1">
          <mxGeometry relative="1" as="geometry">
            <mxPoint x="540" y="-3076.9473684210525" as="targetPoint" />
          </mxGeometry>
        </mxCell>
        <mxCell id="lx2OKLv6R97FphPEtWig-5" value="1) Run Restart on all &lt;br&gt;NGGF instances in AWS&lt;br&gt;From &lt;br&gt;External System" style="html=1;dashed=0;whitespace=wrap;shape=mxgraph.dfd.start;fillColor=#dae8fc;strokeColor=#6c8ebf;" parent="bVb_GX9Cb-DCjAQpeH2n-265" vertex="1">
          <mxGeometry x="9" y="100" width="151" height="70" as="geometry" />
        </mxCell>
        <mxCell id="h5zs_l_qzaKgr9LBYWd5-7" value="Rule" style="sketch=0;outlineConnect=0;fontColor=#232F3E;gradientColor=none;fillColor=#B0084D;strokeColor=none;dashed=0;verticalLabelPosition=bottom;verticalAlign=top;align=center;html=1;fontSize=12;fontStyle=0;aspect=fixed;pointerEvents=1;shape=mxgraph.aws4.rule_3;" parent="bVb_GX9Cb-DCjAQpeH2n-265" vertex="1">
          <mxGeometry x="288" y="595" width="78" height="68" as="geometry" />
        </mxCell>
        <mxCell id="h5zs_l_qzaKgr9LBYWd5-9" style="edgeStyle=orthogonalEdgeStyle;rounded=0;orthogonalLoop=1;jettySize=auto;html=1;strokeColor=#000000;" parent="bVb_GX9Cb-DCjAQpeH2n-265" source="h5zs_l_qzaKgr9LBYWd5-8" target="h5zs_l_qzaKgr9LBYWd5-7" edge="1">
          <mxGeometry relative="1" as="geometry" />
        </mxCell>
        <mxCell id="h5zs_l_qzaKgr9LBYWd5-8" value="PutEvent" style="sketch=0;outlineConnect=0;fontColor=#232F3E;gradientColor=none;fillColor=#B0084D;strokeColor=none;dashed=0;verticalLabelPosition=bottom;verticalAlign=top;align=center;html=1;fontSize=12;fontStyle=0;aspect=fixed;pointerEvents=1;shape=mxgraph.aws4.event_resource;" parent="bVb_GX9Cb-DCjAQpeH2n-265" vertex="1">
          <mxGeometry x="170" y="590" width="78" height="78" as="geometry" />
        </mxCell>
        <mxCell id="_r_du1Pjrx4MeRMLDfDj-1" value="Scheduled Rule -&lt;br&gt;cron 30-23-*-*-* UTC&lt;br&gt;&lt;i&gt;No QueueCount specified&lt;/i&gt;" style="sketch=0;outlineConnect=0;fontColor=#232F3E;gradientColor=none;fillColor=#B0084D;strokeColor=none;dashed=0;verticalLabelPosition=bottom;verticalAlign=top;align=center;html=1;fontSize=12;fontStyle=0;aspect=fixed;pointerEvents=1;shape=mxgraph.aws4.rule_3;" vertex="1" parent="bVb_GX9Cb-DCjAQpeH2n-265">
          <mxGeometry x="280" y="20" width="78" height="68" as="geometry" />
        </mxCell>
        <mxCell id="r4MoaLolbybNLn0EO4_f-1" value="Automatic nightly restart" style="html=1;dashed=0;whitespace=wrap;shape=mxgraph.dfd.start;fillColor=#d5e8d4;strokeColor=#82b366;" vertex="1" parent="bVb_GX9Cb-DCjAQpeH2n-265">
          <mxGeometry x="119.5" y="10" width="151" height="70" as="geometry" />
        </mxCell>
        <mxCell id="bVb_GX9Cb-DCjAQpeH2n-223" value="AWS Step Functions: AutoScalingGroup&amp;nbsp;workflow" style="points=[[0,0],[0.25,0],[0.5,0],[0.75,0],[1,0],[1,0.25],[1,0.5],[1,0.75],[1,1],[0.75,1],[0.5,1],[0.25,1],[0,1],[0,0.75],[0,0.5],[0,0.25]];outlineConnect=0;html=1;whiteSpace=wrap;fontSize=12;fontStyle=0;container=1;pointerEvents=0;collapsible=0;recursiveResize=0;shape=mxgraph.aws4.group;grIcon=mxgraph.aws4.group_aws_step_functions_workflow;strokeColor=#666666;fillColor=#f5f5f5;verticalAlign=top;align=left;spacingLeft=30;fontColor=#333333;dashed=0;" parent="bVb_GX9Cb-DCjAQpeH2n-222" vertex="1">
          <mxGeometry x="800" y="30" width="618" height="760" as="geometry" />
        </mxCell>
        <mxCell id="bVb_GX9Cb-DCjAQpeH2n-225" value="" style="points=[[0.25,0,0],[0.5,0,0],[0.75,0,0],[1,0.25,0],[1,0.5,0],[1,0.75,0],[0.75,1,0],[0.5,1,0],[0.25,1,0],[0,0.75,0],[0,0.5,0],[0,0.25,0]];shape=mxgraph.bpmn.task;whiteSpace=wrap;rectStyle=rounded;size=10;taskMarker=abstract;bpmnShapeType=subprocess;isLoopSub=1;outline=eventInt;symbol=parallelMultiple;fontColor=#000000;" parent="bVb_GX9Cb-DCjAQpeH2n-223" vertex="1">
          <mxGeometry x="344.54" y="340" width="214" height="80" as="geometry" />
        </mxCell>
        <mxCell id="bVb_GX9Cb-DCjAQpeH2n-226" style="edgeStyle=orthogonalEdgeStyle;rounded=0;orthogonalLoop=1;jettySize=auto;html=1;entryX=0.5;entryY=0;entryDx=0;entryDy=0;fillColor=#d5e8d4;strokeColor=#82b366;exitX=0.5;exitY=1;exitDx=0;exitDy=0;exitPerimeter=0;" parent="bVb_GX9Cb-DCjAQpeH2n-223" source="bVb_GX9Cb-DCjAQpeH2n-280" target="bVb_GX9Cb-DCjAQpeH2n-229" edge="1">
          <mxGeometry relative="1" as="geometry">
            <mxPoint x="374" y="161" as="sourcePoint" />
          </mxGeometry>
        </mxCell>
        <mxCell id="bVb_GX9Cb-DCjAQpeH2n-228" value="No" style="edgeStyle=orthogonalEdgeStyle;rounded=0;orthogonalLoop=1;jettySize=auto;html=1;fillColor=#d5e8d4;strokeColor=#82b366;entryX=1;entryY=0.5;entryDx=0;entryDy=0;" parent="bVb_GX9Cb-DCjAQpeH2n-223" source="bVb_GX9Cb-DCjAQpeH2n-229" target="bVb_GX9Cb-DCjAQpeH2n-241" edge="1">
          <mxGeometry x="-0.9323" y="10" relative="1" as="geometry">
            <Array as="points">
              <mxPoint x="374" y="250" />
              <mxPoint x="580" y="250" />
              <mxPoint x="580" y="700" />
            </Array>
            <mxPoint as="offset" />
          </mxGeometry>
        </mxCell>
        <mxCell id="bVb_GX9Cb-DCjAQpeH2n-229" value="Instances in Queue?" style="rhombus;verticalAlign=middle;labelPosition=right;verticalLabelPosition=middle;align=left;" parent="bVb_GX9Cb-DCjAQpeH2n-223" vertex="1">
          <mxGeometry x="359" y="200" width="30" height="30" as="geometry" />
        </mxCell>
        <mxCell id="bVb_GX9Cb-DCjAQpeH2n-234" style="edgeStyle=orthogonalEdgeStyle;rounded=0;orthogonalLoop=1;jettySize=auto;html=1;entryX=0.5;entryY=0;entryDx=0;entryDy=0;fillColor=#d5e8d4;strokeColor=#82b366;exitX=0;exitY=0.75;exitDx=0;exitDy=0;exitPerimeter=0;" parent="bVb_GX9Cb-DCjAQpeH2n-223" source="bVb_GX9Cb-DCjAQpeH2n-225" target="bVb_GX9Cb-DCjAQpeH2n-238" edge="1">
          <mxGeometry relative="1" as="geometry">
            <Array as="points">
              <mxPoint x="290.54" y="400" />
              <mxPoint x="290.54" y="410" />
            </Array>
          </mxGeometry>
        </mxCell>
        <mxCell id="bVb_GX9Cb-DCjAQpeH2n-235" value="Start Automation on Instance" style="sketch=0;outlineConnect=0;fontColor=#232F3E;gradientColor=none;fillColor=#B0084D;strokeColor=none;dashed=0;verticalLabelPosition=middle;verticalAlign=middle;align=left;html=1;fontSize=12;fontStyle=0;aspect=fixed;pointerEvents=1;shape=mxgraph.aws4.run_command;labelPosition=right;" parent="bVb_GX9Cb-DCjAQpeH2n-223" vertex="1">
          <mxGeometry x="351.99000000000007" y="365" width="42.55" height="30" as="geometry" />
        </mxCell>
        <mxCell id="bVb_GX9Cb-DCjAQpeH2n-237" value="Yes" style="edgeStyle=orthogonalEdgeStyle;rounded=0;orthogonalLoop=1;jettySize=auto;html=1;entryX=0.5;entryY=0;entryDx=0;entryDy=0;fillColor=#d5e8d4;strokeColor=#82b366;" parent="bVb_GX9Cb-DCjAQpeH2n-223" source="bVb_GX9Cb-DCjAQpeH2n-238" target="bVb_GX9Cb-DCjAQpeH2n-240" edge="1">
          <mxGeometry relative="1" as="geometry" />
        </mxCell>
        <mxCell id="bVb_GX9Cb-DCjAQpeH2n-238" value="Register Instance Success/Fail" style="rhombus;verticalAlign=middle;labelPosition=right;verticalLabelPosition=middle;align=left;" parent="bVb_GX9Cb-DCjAQpeH2n-223" vertex="1">
          <mxGeometry x="275.00000000000006" y="440" width="30" height="30" as="geometry" />
        </mxCell>
        <mxCell id="bVb_GX9Cb-DCjAQpeH2n-239" value="No" style="edgeStyle=orthogonalEdgeStyle;rounded=0;orthogonalLoop=1;jettySize=auto;html=1;entryX=0.5;entryY=0;entryDx=0;entryDy=0;fontColor=#000000;fillColor=#d5e8d4;strokeColor=#82b366;" parent="bVb_GX9Cb-DCjAQpeH2n-223" source="bVb_GX9Cb-DCjAQpeH2n-240" target="h5zs_l_qzaKgr9LBYWd5-3" edge="1">
          <mxGeometry relative="1" as="geometry">
            <mxPoint x="303.7300000000005" y="699.9999999999995" as="targetPoint" />
          </mxGeometry>
        </mxCell>
        <mxCell id="bVb_GX9Cb-DCjAQpeH2n-240" value="Do I have more instances in the Queue?" style="rhombus;verticalAlign=middle;labelPosition=right;verticalLabelPosition=middle;align=left;" parent="bVb_GX9Cb-DCjAQpeH2n-223" vertex="1">
          <mxGeometry x="275" y="520" width="30" height="30" as="geometry" />
        </mxCell>
        <mxCell id="bVb_GX9Cb-DCjAQpeH2n-241" value="&lt;font&gt;End&lt;/font&gt;" style="shape=image;html=1;verticalAlign=top;verticalLabelPosition=bottom;labelBackgroundColor=none;imageAspect=0;aspect=fixed;image=https://cdn0.iconfinder.com/data/icons/iconsweets2/40/finish_flag.png;fontColor=#000000;imageBackground=#97D077;opacity=50;" parent="bVb_GX9Cb-DCjAQpeH2n-223" vertex="1">
          <mxGeometry x="270" y="680" width="40" height="40" as="geometry" />
        </mxCell>
        <mxCell id="bVb_GX9Cb-DCjAQpeH2n-244" style="edgeStyle=orthogonalEdgeStyle;rounded=0;orthogonalLoop=1;jettySize=auto;html=1;entryX=0;entryY=1;entryDx=0;entryDy=0;entryPerimeter=0;strokeColor=#82b366;fontColor=#000000;fillColor=#d5e8d4;exitX=0;exitY=0.5;exitDx=0;exitDy=0;" parent="bVb_GX9Cb-DCjAQpeH2n-223" source="bVb_GX9Cb-DCjAQpeH2n-240" target="bVb_GX9Cb-DCjAQpeH2n-280" edge="1">
          <mxGeometry relative="1" as="geometry">
            <Array as="points">
              <mxPoint x="144" y="535" />
              <mxPoint x="144" y="160" />
            </Array>
            <mxPoint x="143.94736842105294" y="512" as="sourcePoint" />
          </mxGeometry>
        </mxCell>
        <mxCell id="bVb_GX9Cb-DCjAQpeH2n-249" style="edgeStyle=orthogonalEdgeStyle;rounded=0;orthogonalLoop=1;jettySize=auto;html=1;fillColor=#d5e8d4;strokeColor=#82b366;entryX=0.5;entryY=0;entryDx=0;entryDy=0;exitX=0;exitY=0.5;exitDx=0;exitDy=0;" parent="bVb_GX9Cb-DCjAQpeH2n-223" source="bVb_GX9Cb-DCjAQpeH2n-229" target="bVb_GX9Cb-DCjAQpeH2n-254" edge="1">
          <mxGeometry relative="1" as="geometry">
            <Array as="points" />
            <mxPoint x="304.4599999999996" y="410" as="targetPoint" />
            <mxPoint x="290" y="290" as="sourcePoint" />
          </mxGeometry>
        </mxCell>
        <mxCell id="bVb_GX9Cb-DCjAQpeH2n-250" value="Yes" style="edgeLabel;html=1;align=center;verticalAlign=middle;resizable=0;points=[];fontColor=#000000;" parent="bVb_GX9Cb-DCjAQpeH2n-249" vertex="1" connectable="0">
          <mxGeometry x="-0.3639" relative="1" as="geometry">
            <mxPoint as="offset" />
          </mxGeometry>
        </mxCell>
        <mxCell id="bVb_GX9Cb-DCjAQpeH2n-253" style="edgeStyle=orthogonalEdgeStyle;rounded=0;orthogonalLoop=1;jettySize=auto;html=1;entryX=0.017;entryY=0.133;entryDx=0;entryDy=0;entryPerimeter=0;strokeColor=#82b366;fontColor=#000000;fillColor=#d5e8d4;" parent="bVb_GX9Cb-DCjAQpeH2n-223" source="bVb_GX9Cb-DCjAQpeH2n-254" target="bVb_GX9Cb-DCjAQpeH2n-225" edge="1">
          <mxGeometry relative="1" as="geometry">
            <Array as="points">
              <mxPoint x="295.54" y="351" />
            </Array>
          </mxGeometry>
        </mxCell>
        <mxCell id="bVb_GX9Cb-DCjAQpeH2n-254" value="RunSSMCommand&lt;br&gt;Map (per EC2 Instance)" style="shape=image;html=1;verticalAlign=middle;verticalLabelPosition=middle;labelBackgroundColor=#ffffff;imageAspect=0;aspect=fixed;image=https://cdn4.iconfinder.com/data/icons/ionicons/512/icon-map-128.png;fontColor=#000000;labelPosition=right;align=left;" parent="bVb_GX9Cb-DCjAQpeH2n-223" vertex="1">
          <mxGeometry x="260" y="280" width="60" height="60" as="geometry" />
        </mxCell>
        <mxCell id="bVb_GX9Cb-DCjAQpeH2n-280" value="CalculateRestartPlan" style="sketch=0;points=[[0,0,0],[0.25,0,0],[0.5,0,0],[0.75,0,0],[1,0,0],[0,1,0],[0.25,1,0],[0.5,1,0],[0.75,1,0],[1,1,0],[0,0.25,0],[0,0.5,0],[0,0.75,0],[1,0.25,0],[1,0.5,0],[1,0.75,0]];outlineConnect=0;fontColor=#232F3E;gradientColor=#F78E04;gradientDirection=north;fillColor=#D05C17;strokeColor=#ffffff;dashed=0;verticalLabelPosition=middle;verticalAlign=middle;align=left;html=1;fontSize=12;fontStyle=0;aspect=fixed;shape=mxgraph.aws4.resourceIcon;resIcon=mxgraph.aws4.lambda;labelPosition=right;" parent="bVb_GX9Cb-DCjAQpeH2n-223" vertex="1">
          <mxGeometry x="354" y="120" width="40" height="40" as="geometry" />
        </mxCell>
        <mxCell id="h5zs_l_qzaKgr9LBYWd5-5" style="edgeStyle=orthogonalEdgeStyle;rounded=0;orthogonalLoop=1;jettySize=auto;html=1;strokeColor=#97D077;" parent="bVb_GX9Cb-DCjAQpeH2n-223" source="h5zs_l_qzaKgr9LBYWd5-3" target="bVb_GX9Cb-DCjAQpeH2n-241" edge="1">
          <mxGeometry relative="1" as="geometry" />
        </mxCell>
        <mxCell id="h5zs_l_qzaKgr9LBYWd5-3" value="Send SNS Results" style="rhombus;verticalAlign=middle;labelPosition=right;verticalLabelPosition=middle;align=left;" parent="bVb_GX9Cb-DCjAQpeH2n-223" vertex="1">
          <mxGeometry x="275.00000000000006" y="610" width="30" height="30" as="geometry" />
        </mxCell>
        <mxCell id="dOTERbZoWUy5YyVQ7KNz-4" style="edgeStyle=orthogonalEdgeStyle;rounded=0;orthogonalLoop=1;jettySize=auto;html=1;" parent="bVb_GX9Cb-DCjAQpeH2n-223" source="dOTERbZoWUy5YyVQ7KNz-2" target="bVb_GX9Cb-DCjAQpeH2n-280" edge="1">
          <mxGeometry relative="1" as="geometry">
            <Array as="points">
              <mxPoint x="374" y="105" />
            </Array>
          </mxGeometry>
        </mxCell>
        <mxCell id="dOTERbZoWUy5YyVQ7KNz-2" value="Start" style="ellipse;html=1;shape=endState;fillColor=#97D077;strokeColor=#00ff00;color=#00ff00;labelPosition=center;verticalLabelPosition=top;align=center;verticalAlign=bottom;" parent="bVb_GX9Cb-DCjAQpeH2n-223" vertex="1">
          <mxGeometry x="240" y="90" width="30" height="30" as="geometry" />
        </mxCell>
        <mxCell id="g7KUOkAP7T1-D5GJ6F_d-1" value="5 Run Restart on&amp;nbsp;&lt;br&gt;&lt;span style=&quot;text-indent: -0.25in; font-size: 9pt; font-family: Helvetica, sans-serif; background-image: initial; background-position: initial; background-size: initial; background-repeat: initial; background-attachment: initial; background-origin: initial; background-clip: initial;&quot;&gt;Specific&lt;/span&gt;&lt;span style=&quot;text-indent: -0.25in; font-size: 9pt; font-family: Helvetica, sans-serif;&quot;&gt; &lt;span style=&quot;background-image: initial; background-position: initial; background-size: initial; background-repeat: initial; background-attachment: initial; background-origin: initial; background-clip: initial;&quot;&gt;AutoScalingGroup&lt;/span&gt; &lt;br&gt;from AWS Console&lt;/span&gt;&lt;p class=&quot;MsoListParagraph&quot;&gt;&lt;/p&gt;" style="html=1;dashed=0;whitespace=wrap;shape=mxgraph.dfd.start;fillColor=#d5e8d4;strokeColor=#82b366;" parent="bVb_GX9Cb-DCjAQpeH2n-223" vertex="1">
          <mxGeometry x="80" y="40" width="146" height="60" as="geometry" />
        </mxCell>
        <mxCell id="bVb_GX9Cb-DCjAQpeH2n-256" style="edgeStyle=orthogonalEdgeStyle;rounded=0;orthogonalLoop=1;jettySize=auto;html=1;fontColor=#000000;strokeColor=#005700;dashed=1;fillColor=#008a00;" parent="bVb_GX9Cb-DCjAQpeH2n-222" source="bVb_GX9Cb-DCjAQpeH2n-235" target="g7KUOkAP7T1-D5GJ6F_d-3" edge="1">
          <mxGeometry relative="1" as="geometry">
            <mxPoint x="1512" y="358" as="targetPoint" />
            <Array as="points">
              <mxPoint x="1173" y="440" />
              <mxPoint x="1450" y="440" />
              <mxPoint x="1450" y="718" />
            </Array>
          </mxGeometry>
        </mxCell>
        <mxCell id="bVb_GX9Cb-DCjAQpeH2n-258" value="" style="swimlane;startSize=0;" parent="bVb_GX9Cb-DCjAQpeH2n-222" vertex="1">
          <mxGeometry x="1610" y="450" width="340" height="430" as="geometry" />
        </mxCell>
        <mxCell id="bVb_GX9Cb-DCjAQpeH2n-259" value="Systems Manager" style="sketch=0;points=[[0,0,0],[0.25,0,0],[0.5,0,0],[0.75,0,0],[1,0,0],[0,1,0],[0.25,1,0],[0.5,1,0],[0.75,1,0],[1,1,0],[0,0.25,0],[0,0.5,0],[0,0.75,0],[1,0.25,0],[1,0.5,0],[1,0.75,0]];points=[[0,0,0],[0.25,0,0],[0.5,0,0],[0.75,0,0],[1,0,0],[0,1,0],[0.25,1,0],[0.5,1,0],[0.75,1,0],[1,1,0],[0,0.25,0],[0,0.5,0],[0,0.75,0],[1,0.25,0],[1,0.5,0],[1,0.75,0]];outlineConnect=0;fontColor=#232F3E;gradientColor=#F34482;gradientDirection=north;fillColor=#BC1356;strokeColor=#ffffff;dashed=0;verticalLabelPosition=bottom;verticalAlign=top;align=left;html=1;fontSize=12;fontStyle=0;aspect=fixed;shape=mxgraph.aws4.resourceIcon;resIcon=mxgraph.aws4.systems_manager;" parent="bVb_GX9Cb-DCjAQpeH2n-258" vertex="1">
          <mxGeometry width="50" height="50" as="geometry" />
        </mxCell>
        <mxCell id="bVb_GX9Cb-DCjAQpeH2n-260" style="edgeStyle=orthogonalEdgeStyle;rounded=0;orthogonalLoop=1;jettySize=auto;html=1;endArrow=oval;endFill=1;" parent="bVb_GX9Cb-DCjAQpeH2n-258" source="g7KUOkAP7T1-D5GJ6F_d-3" target="bVb_GX9Cb-DCjAQpeH2n-262" edge="1">
          <mxGeometry relative="1" as="geometry" />
        </mxCell>
        <mxCell id="bVb_GX9Cb-DCjAQpeH2n-261" value="Run Command" style="sketch=0;outlineConnect=0;fontColor=#232F3E;gradientColor=none;fillColor=#B0084D;strokeColor=none;dashed=0;verticalLabelPosition=bottom;verticalAlign=top;align=center;html=1;fontSize=12;fontStyle=0;aspect=fixed;pointerEvents=1;shape=mxgraph.aws4.run_command;" parent="bVb_GX9Cb-DCjAQpeH2n-258" vertex="1">
          <mxGeometry x="230" y="240" width="78" height="55" as="geometry" />
        </mxCell>
        <mxCell id="g7KUOkAP7T1-D5GJ6F_d-7" style="edgeStyle=orthogonalEdgeStyle;rounded=0;orthogonalLoop=1;jettySize=auto;html=1;fontColor=#000000;" parent="bVb_GX9Cb-DCjAQpeH2n-258" source="bVb_GX9Cb-DCjAQpeH2n-262" target="g7KUOkAP7T1-D5GJ6F_d-6" edge="1">
          <mxGeometry relative="1" as="geometry" />
        </mxCell>
        <mxCell id="bVb_GX9Cb-DCjAQpeH2n-262" value="XPM Restart&lt;br&gt;Command Document" style="sketch=0;outlineConnect=0;fontColor=#232F3E;gradientColor=none;fillColor=#B0084D;strokeColor=none;dashed=0;verticalLabelPosition=bottom;verticalAlign=top;align=center;html=1;fontSize=12;fontStyle=0;aspect=fixed;pointerEvents=1;shape=mxgraph.aws4.documents;" parent="bVb_GX9Cb-DCjAQpeH2n-258" vertex="1">
          <mxGeometry x="130" y="320" width="47.59" height="58" as="geometry" />
        </mxCell>
        <mxCell id="g7KUOkAP7T1-D5GJ6F_d-4" style="edgeStyle=orthogonalEdgeStyle;rounded=0;orthogonalLoop=1;jettySize=auto;html=1;fontColor=#000000;" parent="bVb_GX9Cb-DCjAQpeH2n-258" source="bVb_GX9Cb-DCjAQpeH2n-262" target="bVb_GX9Cb-DCjAQpeH2n-261" edge="1">
          <mxGeometry relative="1" as="geometry">
            <Array as="points">
              <mxPoint x="210" y="340" />
              <mxPoint x="210" y="268" />
            </Array>
          </mxGeometry>
        </mxCell>
        <mxCell id="g7KUOkAP7T1-D5GJ6F_d-3" value="Automation" style="sketch=0;outlineConnect=0;fontColor=#232F3E;gradientColor=none;fillColor=#B0084D;strokeColor=none;dashed=0;verticalLabelPosition=bottom;verticalAlign=top;align=center;html=1;fontSize=12;fontStyle=0;aspect=fixed;pointerEvents=1;shape=mxgraph.aws4.automation;labelBackgroundColor=none;opacity=50;" parent="bVb_GX9Cb-DCjAQpeH2n-258" vertex="1">
          <mxGeometry x="40" y="233.5" width="68" height="68" as="geometry" />
        </mxCell>
        <mxCell id="g7KUOkAP7T1-D5GJ6F_d-6" value="Send Task Result" style="sketch=0;outlineConnect=0;fontColor=#232F3E;gradientColor=none;fillColor=#D45B07;strokeColor=none;dashed=0;verticalLabelPosition=bottom;verticalAlign=top;align=center;html=1;fontSize=12;fontStyle=0;aspect=fixed;pointerEvents=1;shape=mxgraph.aws4.ecs_task;labelBackgroundColor=none;opacity=50;" parent="bVb_GX9Cb-DCjAQpeH2n-258" vertex="1">
          <mxGeometry x="260" y="325" width="37" height="48" as="geometry" />
        </mxCell>
        <mxCell id="HJJGa-DDDwBRSVGhN3R0-1" value="7) Run Restart on&amp;nbsp;&lt;br&gt;&lt;div style=&quot;text-indent: 0px;&quot;&gt;&lt;span style=&quot;background: initial; font-size: 9pt; text-indent: -0.25in; font-family: Helvetica, sans-serif;&quot;&gt;Target&lt;/span&gt;&lt;span style=&quot;background-color: initial; font-size: 9pt; text-indent: -0.25in; font-family: Helvetica, sans-serif;&quot;&gt; &lt;span style=&quot;background-image: initial; background-position: initial; background-size: initial; background-repeat: initial; background-attachment: initial; background-origin: initial; background-clip: initial;&quot;&gt;Instance&lt;/span&gt;&lt;/span&gt;&lt;/div&gt;&lt;span style=&quot;text-indent: -0.25in; font-size: 9pt; font-family: Helvetica, sans-serif;&quot;&gt;&lt;span style=&quot;background-image: initial; background-position: initial; background-size: initial; background-repeat: initial; background-attachment: initial; background-origin: initial; background-clip: initial;&quot;&gt;from&amp;nbsp;&lt;/span&gt;&lt;/span&gt;&lt;span style=&quot;text-indent: -0.25in; background-image: initial; background-position: initial; background-size: initial; background-repeat: initial; background-attachment: initial; background-origin: initial; background-clip: initial;&quot;&gt;AWS Console&lt;/span&gt;&lt;p class=&quot;MsoListParagraph&quot;&gt;&lt;/p&gt;" style="html=1;dashed=0;whitespace=wrap;shape=mxgraph.dfd.start;fillColor=#d5e8d4;strokeColor=#82b366;verticalAlign=top;" vertex="1" parent="bVb_GX9Cb-DCjAQpeH2n-258">
          <mxGeometry x="30" y="149" width="128.5" height="62" as="geometry" />
        </mxCell>
        <mxCell id="bVb_GX9Cb-DCjAQpeH2n-273" style="edgeStyle=orthogonalEdgeStyle;rounded=0;orthogonalLoop=1;jettySize=auto;html=1;strokeColor=#000000;fontColor=#000000;exitX=1;exitY=0.5;exitDx=0;exitDy=0;exitPerimeter=0;" parent="bVb_GX9Cb-DCjAQpeH2n-222" source="bVb_GX9Cb-DCjAQpeH2n-275" target="h5zs_l_qzaKgr9LBYWd5-8" edge="1">
          <mxGeometry relative="1" as="geometry">
            <mxPoint x="648" y="314" as="sourcePoint" />
            <mxPoint x="1147" y="76" as="targetPoint" />
            <Array as="points">
              <mxPoint x="660" y="268" />
              <mxPoint x="660" y="580" />
              <mxPoint x="240" y="580" />
            </Array>
          </mxGeometry>
        </mxCell>
        <mxCell id="bVb_GX9Cb-DCjAQpeH2n-275" value="XPM Event Publisher Lambda" style="sketch=0;points=[[0,0,0],[0.25,0,0],[0.5,0,0],[0.75,0,0],[1,0,0],[0,1,0],[0.25,1,0],[0.5,1,0],[0.75,1,0],[1,1,0],[0,0.25,0],[0,0.5,0],[0,0.75,0],[1,0.25,0],[1,0.5,0],[1,0.75,0]];outlineConnect=0;fontColor=#232F3E;gradientColor=#F78E04;gradientDirection=north;fillColor=#D05C17;strokeColor=#ffffff;dashed=0;verticalLabelPosition=bottom;verticalAlign=top;align=center;html=1;fontSize=12;fontStyle=0;aspect=fixed;shape=mxgraph.aws4.resourceIcon;resIcon=mxgraph.aws4.lambda;" parent="bVb_GX9Cb-DCjAQpeH2n-222" vertex="1">
          <mxGeometry x="522.25" y="229" width="78" height="78" as="geometry" />
        </mxCell>
        <mxCell id="bVb_GX9Cb-DCjAQpeH2n-277" value="4) Run Restart on all&lt;br style=&quot;border-color: var(--border-color);&quot;&gt;NGGF instances in AWS&lt;br style=&quot;border-color: var(--border-color);&quot;&gt;From&lt;br style=&quot;border-color: var(--border-color);&quot;&gt;AWS Console" style="html=1;dashed=0;whitespace=wrap;shape=mxgraph.dfd.start;fillColor=#d5e8d4;strokeColor=#82b366;" parent="bVb_GX9Cb-DCjAQpeH2n-222" vertex="1">
          <mxGeometry x="482.5" y="130" width="167.5" height="64" as="geometry" />
        </mxCell>
        <mxCell id="bVb_GX9Cb-DCjAQpeH2n-349" value="Calculate Restart Plan&lt;br&gt;Lambda" style="sketch=0;points=[[0,0,0],[0.25,0,0],[0.5,0,0],[0.75,0,0],[1,0,0],[0,1,0],[0.25,1,0],[0.5,1,0],[0.75,1,0],[1,1,0],[0,0.25,0],[0,0.5,0],[0,0.75,0],[1,0.25,0],[1,0.5,0],[1,0.75,0]];outlineConnect=0;fontColor=#232F3E;gradientColor=#F78E04;gradientDirection=north;fillColor=#D05C17;strokeColor=#ffffff;dashed=0;verticalLabelPosition=middle;verticalAlign=middle;align=left;html=1;fontSize=12;fontStyle=0;aspect=fixed;shape=mxgraph.aws4.resourceIcon;resIcon=mxgraph.aws4.lambda;labelPosition=right;" parent="bVb_GX9Cb-DCjAQpeH2n-222" vertex="1">
          <mxGeometry x="1520" y="140" width="80" height="80" as="geometry" />
        </mxCell>
        <mxCell id="bVb_GX9Cb-DCjAQpeH2n-350" style="edgeStyle=orthogonalEdgeStyle;rounded=0;orthogonalLoop=1;jettySize=auto;html=1;dashed=1;strokeColor=#000000;fontSize=20;fontColor=#000000;" parent="bVb_GX9Cb-DCjAQpeH2n-222" source="bVb_GX9Cb-DCjAQpeH2n-280" target="bVb_GX9Cb-DCjAQpeH2n-349" edge="1">
          <mxGeometry relative="1" as="geometry">
            <Array as="points">
              <mxPoint x="1370" y="180" />
              <mxPoint x="1370" y="180" />
            </Array>
          </mxGeometry>
        </mxCell>
        <mxCell id="qxKK6ZjHvPnJAsw9MCfN-1" value="EC2 Instance" style="sketch=0;points=[[0,0,0],[0.25,0,0],[0.5,0,0],[0.75,0,0],[1,0,0],[0,1,0],[0.25,1,0],[0.5,1,0],[0.75,1,0],[1,1,0],[0,0.25,0],[0,0.5,0],[0,0.75,0],[1,0.25,0],[1,0.5,0],[1,0.75,0]];outlineConnect=0;fontColor=#232F3E;gradientColor=#F78E04;gradientDirection=north;fillColor=#D05C17;strokeColor=#ffffff;dashed=0;verticalLabelPosition=bottom;verticalAlign=top;align=center;html=1;fontSize=12;fontStyle=0;aspect=fixed;shape=mxgraph.aws4.resourceIcon;resIcon=mxgraph.aws4.ec2;" parent="bVb_GX9Cb-DCjAQpeH2n-222" vertex="1">
          <mxGeometry x="2024.72" y="678.5" width="78" height="78" as="geometry" />
        </mxCell>
        <mxCell id="h5zs_l_qzaKgr9LBYWd5-10" style="edgeStyle=orthogonalEdgeStyle;rounded=0;orthogonalLoop=1;jettySize=auto;html=1;strokeColor=#000000;entryX=0;entryY=0.5;entryDx=0;entryDy=0;" parent="bVb_GX9Cb-DCjAQpeH2n-222" source="h5zs_l_qzaKgr9LBYWd5-7" target="dOTERbZoWUy5YyVQ7KNz-2" edge="1">
          <mxGeometry relative="1" as="geometry">
            <Array as="points">
              <mxPoint x="760" y="679" />
              <mxPoint x="760" y="135" />
            </Array>
            <mxPoint x="860" y="110" as="targetPoint" />
          </mxGeometry>
        </mxCell>
        <mxCell id="lx2OKLv6R97FphPEtWig-6" value="Event initiated&lt;br&gt;per AutoScalingGroup" style="text;html=1;align=center;verticalAlign=middle;resizable=0;points=[];autosize=1;strokeColor=none;fillColor=none;" parent="bVb_GX9Cb-DCjAQpeH2n-222" vertex="1">
          <mxGeometry x="510" y="530" width="140" height="40" as="geometry" />
        </mxCell>
        <mxCell id="g7KUOkAP7T1-D5GJ6F_d-8" style="edgeStyle=orthogonalEdgeStyle;rounded=0;orthogonalLoop=1;jettySize=auto;html=1;entryX=1;entryY=0.5;entryDx=0;entryDy=0;entryPerimeter=0;fontColor=#000000;dashed=1;fillColor=#a20025;strokeColor=#6F0000;" parent="bVb_GX9Cb-DCjAQpeH2n-222" source="g7KUOkAP7T1-D5GJ6F_d-6" target="bVb_GX9Cb-DCjAQpeH2n-225" edge="1">
          <mxGeometry relative="1" as="geometry">
            <Array as="points">
              <mxPoint x="2150" y="810" />
              <mxPoint x="2150" y="410" />
            </Array>
          </mxGeometry>
        </mxCell>
        <mxCell id="g7KUOkAP7T1-D5GJ6F_d-32" value="AWS Step Functions: Target Instance workflow" style="points=[[0,0],[0.25,0],[0.5,0],[0.75,0],[1,0],[1,0.25],[1,0.5],[1,0.75],[1,1],[0.75,1],[0.5,1],[0.25,1],[0,1],[0,0.75],[0,0.5],[0,0.25]];outlineConnect=0;html=1;whiteSpace=wrap;fontSize=12;fontStyle=0;container=1;pointerEvents=0;collapsible=0;recursiveResize=0;shape=mxgraph.aws4.group;grIcon=mxgraph.aws4.group_aws_step_functions_workflow;strokeColor=#666666;fillColor=#f5f5f5;verticalAlign=top;align=left;spacingLeft=30;fontColor=#333333;dashed=0;" parent="bVb_GX9Cb-DCjAQpeH2n-222" vertex="1">
          <mxGeometry x="800" y="813" width="450" height="450" as="geometry" />
        </mxCell>
        <mxCell id="g7KUOkAP7T1-D5GJ6F_d-60" style="edgeStyle=orthogonalEdgeStyle;rounded=0;orthogonalLoop=1;jettySize=auto;html=1;entryX=0.5;entryY=0;entryDx=0;entryDy=0;fontColor=#000000;" parent="g7KUOkAP7T1-D5GJ6F_d-32" source="g7KUOkAP7T1-D5GJ6F_d-40" target="g7KUOkAP7T1-D5GJ6F_d-51" edge="1">
          <mxGeometry relative="1" as="geometry" />
        </mxCell>
        <mxCell id="g7KUOkAP7T1-D5GJ6F_d-40" value="Register Instance Success/Fail" style="rhombus;verticalAlign=middle;labelPosition=right;verticalLabelPosition=middle;align=left;" parent="g7KUOkAP7T1-D5GJ6F_d-32" vertex="1">
          <mxGeometry x="196.27000000000004" y="250" width="30" height="30" as="geometry" />
        </mxCell>
        <mxCell id="g7KUOkAP7T1-D5GJ6F_d-43" value="&lt;font&gt;End&lt;/font&gt;" style="shape=image;html=1;verticalAlign=top;verticalLabelPosition=bottom;labelBackgroundColor=none;imageAspect=0;aspect=fixed;image=https://cdn0.iconfinder.com/data/icons/iconsweets2/40/finish_flag.png;fontColor=#000000;imageBackground=#97D077;opacity=50;" parent="g7KUOkAP7T1-D5GJ6F_d-32" vertex="1">
          <mxGeometry x="191.55" y="380" width="40" height="40" as="geometry" />
        </mxCell>
        <mxCell id="g7KUOkAP7T1-D5GJ6F_d-50" style="edgeStyle=orthogonalEdgeStyle;rounded=0;orthogonalLoop=1;jettySize=auto;html=1;strokeColor=#97D077;" parent="g7KUOkAP7T1-D5GJ6F_d-32" source="g7KUOkAP7T1-D5GJ6F_d-51" target="g7KUOkAP7T1-D5GJ6F_d-43" edge="1">
          <mxGeometry relative="1" as="geometry" />
        </mxCell>
        <mxCell id="g7KUOkAP7T1-D5GJ6F_d-51" value="Send SNS Results" style="rhombus;verticalAlign=middle;labelPosition=right;verticalLabelPosition=middle;align=left;" parent="g7KUOkAP7T1-D5GJ6F_d-32" vertex="1">
          <mxGeometry x="196.55000000000007" y="310" width="30" height="30" as="geometry" />
        </mxCell>
        <mxCell id="g7KUOkAP7T1-D5GJ6F_d-52" style="edgeStyle=orthogonalEdgeStyle;rounded=0;orthogonalLoop=1;jettySize=auto;html=1;" parent="g7KUOkAP7T1-D5GJ6F_d-32" source="g7KUOkAP7T1-D5GJ6F_d-53" target="g7KUOkAP7T1-D5GJ6F_d-56" edge="1">
          <mxGeometry relative="1" as="geometry">
            <Array as="points">
              <mxPoint x="214" y="145" />
            </Array>
            <mxPoint x="214.1111111111113" y="160" as="targetPoint" />
          </mxGeometry>
        </mxCell>
        <mxCell id="g7KUOkAP7T1-D5GJ6F_d-53" value="Start" style="ellipse;html=1;shape=endState;fillColor=#97D077;strokeColor=#00ff00;color=#00ff00;labelPosition=center;verticalLabelPosition=top;align=center;verticalAlign=bottom;" parent="g7KUOkAP7T1-D5GJ6F_d-32" vertex="1">
          <mxGeometry x="80" y="130" width="30" height="30" as="geometry" />
        </mxCell>
        <mxCell id="g7KUOkAP7T1-D5GJ6F_d-2" value="6) Run Restart on&amp;nbsp;&lt;br&gt;&lt;div style=&quot;text-indent: 0px;&quot;&gt;&lt;span style=&quot;background: initial; font-size: 9pt; text-indent: -0.25in; font-family: Helvetica, sans-serif;&quot;&gt;Target&lt;/span&gt;&lt;span style=&quot;background-color: initial; font-size: 9pt; text-indent: -0.25in; font-family: Helvetica, sans-serif;&quot;&gt; &lt;span style=&quot;background-image: initial; background-position: initial; background-size: initial; background-repeat: initial; background-attachment: initial; background-origin: initial; background-clip: initial;&quot;&gt;Instance&lt;/span&gt;&lt;/span&gt;&lt;/div&gt;&lt;span style=&quot;text-indent: -0.25in; font-size: 9pt; font-family: Helvetica, sans-serif;&quot;&gt;&lt;span style=&quot;background-image: initial; background-position: initial; background-size: initial; background-repeat: initial; background-attachment: initial; background-origin: initial; background-clip: initial;&quot;&gt;from&amp;nbsp;&lt;/span&gt;&lt;/span&gt;&lt;span style=&quot;text-indent: -0.25in; background-image: initial; background-position: initial; background-size: initial; background-repeat: initial; background-attachment: initial; background-origin: initial; background-clip: initial;&quot;&gt;AWS Console&lt;/span&gt;&lt;p class=&quot;MsoListParagraph&quot;&gt;&lt;/p&gt;" style="html=1;dashed=0;whitespace=wrap;shape=mxgraph.dfd.start;fillColor=#d5e8d4;strokeColor=#82b366;verticalAlign=top;" parent="g7KUOkAP7T1-D5GJ6F_d-32" vertex="1">
          <mxGeometry x="50" y="38" width="128.5" height="62" as="geometry" />
        </mxCell>
        <mxCell id="g7KUOkAP7T1-D5GJ6F_d-58" style="edgeStyle=orthogonalEdgeStyle;rounded=0;orthogonalLoop=1;jettySize=auto;html=1;entryX=0.5;entryY=0;entryDx=0;entryDy=0;fontColor=#000000;" parent="g7KUOkAP7T1-D5GJ6F_d-32" source="g7KUOkAP7T1-D5GJ6F_d-56" target="g7KUOkAP7T1-D5GJ6F_d-40" edge="1">
          <mxGeometry relative="1" as="geometry" />
        </mxCell>
        <mxCell id="g7KUOkAP7T1-D5GJ6F_d-56" value="Start Automation on Instance" style="sketch=0;outlineConnect=0;fontColor=#232F3E;gradientColor=none;fillColor=#B0084D;strokeColor=none;dashed=0;verticalLabelPosition=top;verticalAlign=bottom;align=left;html=1;fontSize=12;fontStyle=0;aspect=fixed;pointerEvents=1;shape=mxgraph.aws4.run_command;labelPosition=right;" parent="g7KUOkAP7T1-D5GJ6F_d-32" vertex="1">
          <mxGeometry x="190" y="170" width="42.55" height="30" as="geometry" />
        </mxCell>
        <mxCell id="g7KUOkAP7T1-D5GJ6F_d-55" style="edgeStyle=orthogonalEdgeStyle;rounded=0;orthogonalLoop=1;jettySize=auto;html=1;entryX=0;entryY=0.5;entryDx=0;entryDy=0;fontColor=#000000;" parent="bVb_GX9Cb-DCjAQpeH2n-222" source="bVb_GX9Cb-DCjAQpeH2n-270" target="g7KUOkAP7T1-D5GJ6F_d-53" edge="1">
          <mxGeometry relative="1" as="geometry" />
        </mxCell>
        <mxCell id="g7KUOkAP7T1-D5GJ6F_d-61" style="edgeStyle=orthogonalEdgeStyle;rounded=0;orthogonalLoop=1;jettySize=auto;html=1;fontColor=#000000;dashed=1;fillColor=#a20025;strokeColor=#6F0000;" parent="bVb_GX9Cb-DCjAQpeH2n-222" source="g7KUOkAP7T1-D5GJ6F_d-6" target="g7KUOkAP7T1-D5GJ6F_d-56" edge="1">
          <mxGeometry relative="1" as="geometry">
            <Array as="points">
              <mxPoint x="2050" y="810" />
              <mxPoint x="2050" y="1000" />
            </Array>
          </mxGeometry>
        </mxCell>
        <mxCell id="g7KUOkAP7T1-D5GJ6F_d-62" style="edgeStyle=orthogonalEdgeStyle;rounded=0;orthogonalLoop=1;jettySize=auto;html=1;dashed=1;fontColor=#000000;fillColor=#008a00;strokeColor=#005700;" parent="bVb_GX9Cb-DCjAQpeH2n-222" source="g7KUOkAP7T1-D5GJ6F_d-56" target="g7KUOkAP7T1-D5GJ6F_d-3" edge="1">
          <mxGeometry relative="1" as="geometry">
            <Array as="points">
              <mxPoint x="1450" y="990" />
              <mxPoint x="1450" y="730" />
            </Array>
          </mxGeometry>
        </mxCell>
        <mxCell id="r4MoaLolbybNLn0EO4_f-2" style="edgeStyle=orthogonalEdgeStyle;rounded=0;orthogonalLoop=1;jettySize=auto;html=1;entryX=0;entryY=0.5;entryDx=0;entryDy=0;entryPerimeter=0;" edge="1" parent="bVb_GX9Cb-DCjAQpeH2n-222" source="_r_du1Pjrx4MeRMLDfDj-1" target="bVb_GX9Cb-DCjAQpeH2n-275">
          <mxGeometry relative="1" as="geometry" />
        </mxCell>
        <mxCell id="r4MoaLolbybNLn0EO4_f-3" style="edgeStyle=orthogonalEdgeStyle;rounded=0;orthogonalLoop=1;jettySize=auto;html=1;entryX=0;entryY=0.5;entryDx=0;entryDy=0;entryPerimeter=0;" edge="1" parent="bVb_GX9Cb-DCjAQpeH2n-222" source="lx2OKLv6R97FphPEtWig-2" target="bVb_GX9Cb-DCjAQpeH2n-275">
          <mxGeometry relative="1" as="geometry" />
        </mxCell>
        <mxCell id="bVb_GX9Cb-DCjAQpeH2n-279" value="Accepted Solution - Including Rough Draft of Step Function" style="text;html=1;align=center;verticalAlign=middle;resizable=0;points=[];autosize=1;strokeColor=none;fillColor=none;fontColor=#000000;fontSize=29;" parent="1" vertex="1">
          <mxGeometry x="190" y="2080" width="780" height="50" as="geometry" />
        </mxCell>
        <mxCell id="kgdoKqGV_y0ttHYRn_e4-1" value="SSM Agent" style="sketch=0;pointerEvents=1;shadow=0;dashed=0;html=1;strokeColor=none;fillColor=#DF8C42;labelPosition=right;verticalLabelPosition=middle;verticalAlign=middle;align=left;outlineConnect=0;shape=mxgraph.veeam2.agent;" vertex="1" parent="1">
          <mxGeometry x="1570" y="2783" width="21" height="21" as="geometry" />
        </mxCell>
        <mxCell id="qxKK6ZjHvPnJAsw9MCfN-2" style="edgeStyle=orthogonalEdgeStyle;rounded=0;orthogonalLoop=1;jettySize=auto;html=1;endArrow=classic;endFill=1;" parent="1" source="bVb_GX9Cb-DCjAQpeH2n-261" target="kgdoKqGV_y0ttHYRn_e4-1" edge="1">
          <mxGeometry relative="1" as="geometry">
            <Array as="points">
              <mxPoint x="1540" y="2837" />
              <mxPoint x="1540" y="2793" />
            </Array>
          </mxGeometry>
        </mxCell>
        <mxCell id="j83w9XTxs0EsQR-T_xci-1" value="AWS-RunShellScript&lt;br&gt;Document" style="sketch=0;outlineConnect=0;fontColor=#232F3E;gradientColor=none;fillColor=#B0084D;strokeColor=none;dashed=0;verticalLabelPosition=top;verticalAlign=bottom;align=center;html=1;fontSize=12;fontStyle=0;aspect=fixed;pointerEvents=1;shape=mxgraph.aws4.documents;labelPosition=center;" vertex="1" parent="1">
          <mxGeometry x="1415.2" y="2690" width="47.59" height="58" as="geometry" />
        </mxCell>
        <mxCell id="j83w9XTxs0EsQR-T_xci-2" style="edgeStyle=orthogonalEdgeStyle;rounded=0;orthogonalLoop=1;jettySize=auto;html=1;endArrow=oval;endFill=1;" edge="1" parent="1" source="bVb_GX9Cb-DCjAQpeH2n-261" target="j83w9XTxs0EsQR-T_xci-1">
          <mxGeometry relative="1" as="geometry" />
        </mxCell>
        <mxCell id="d6Csa-l2WJFF3HP2sRZy-1" value="Auto Scaling group" style="points=[[0,0],[0.25,0],[0.5,0],[0.75,0],[1,0],[1,0.25],[1,0.5],[1,0.75],[1,1],[0.75,1],[0.5,1],[0.25,1],[0,1],[0,0.75],[0,0.5],[0,0.25]];outlineConnect=0;gradientColor=none;html=1;whiteSpace=wrap;fontSize=12;fontStyle=0;container=1;pointerEvents=0;collapsible=0;recursiveResize=0;shape=mxgraph.aws4.groupCenter;grIcon=mxgraph.aws4.group_auto_scaling_group;grStroke=1;strokeColor=#D86613;fillColor=none;verticalAlign=top;align=center;fontColor=#D86613;dashed=1;spacingTop=25;" vertex="1" parent="1">
          <mxGeometry x="1558.72" y="2130" width="130" height="780" as="geometry" />
        </mxCell>
        <mxCell id="d6Csa-l2WJFF3HP2sRZy-2" value="EC2 Instance" style="sketch=0;points=[[0,0,0],[0.25,0,0],[0.5,0,0],[0.75,0,0],[1,0,0],[0,1,0],[0.25,1,0],[0.5,1,0],[0.75,1,0],[1,1,0],[0,0.25,0],[0,0.5,0],[0,0.75,0],[1,0.25,0],[1,0.5,0],[1,0.75,0]];outlineConnect=0;fontColor=#232F3E;gradientColor=#F78E04;gradientDirection=north;fillColor=#D05C17;strokeColor=#ffffff;dashed=0;verticalLabelPosition=bottom;verticalAlign=top;align=center;html=1;fontSize=12;fontStyle=0;aspect=fixed;shape=mxgraph.aws4.resourceIcon;resIcon=mxgraph.aws4.ec2;" vertex="1" parent="d6Csa-l2WJFF3HP2sRZy-1">
          <mxGeometry x="26" y="540" width="78" height="78" as="geometry" />
        </mxCell>
        <mxCell id="d6Csa-l2WJFF3HP2sRZy-3" value="EC2 Instance" style="sketch=0;points=[[0,0,0],[0.25,0,0],[0.5,0,0],[0.75,0,0],[1,0,0],[0,1,0],[0.25,1,0],[0.5,1,0],[0.75,1,0],[1,1,0],[0,0.25,0],[0,0.5,0],[0,0.75,0],[1,0.25,0],[1,0.5,0],[1,0.75,0]];outlineConnect=0;fontColor=#232F3E;gradientColor=#F78E04;gradientDirection=north;fillColor=#D05C17;strokeColor=#ffffff;dashed=0;verticalLabelPosition=bottom;verticalAlign=top;align=center;html=1;fontSize=12;fontStyle=0;aspect=fixed;shape=mxgraph.aws4.resourceIcon;resIcon=mxgraph.aws4.ec2;" vertex="1" parent="d6Csa-l2WJFF3HP2sRZy-1">
          <mxGeometry x="26" y="270" width="78" height="78" as="geometry" />
        </mxCell>
        <mxCell id="d6Csa-l2WJFF3HP2sRZy-4" value="EC2 Instance" style="sketch=0;points=[[0,0,0],[0.25,0,0],[0.5,0,0],[0.75,0,0],[1,0,0],[0,1,0],[0.25,1,0],[0.5,1,0],[0.75,1,0],[1,1,0],[0,0.25,0],[0,0.5,0],[0,0.75,0],[1,0.25,0],[1,0.5,0],[1,0.75,0]];outlineConnect=0;fontColor=#232F3E;gradientColor=#F78E04;gradientDirection=north;fillColor=#D05C17;strokeColor=#ffffff;dashed=0;verticalLabelPosition=bottom;verticalAlign=top;align=center;html=1;fontSize=12;fontStyle=0;aspect=fixed;shape=mxgraph.aws4.resourceIcon;resIcon=mxgraph.aws4.ec2;" vertex="1" parent="d6Csa-l2WJFF3HP2sRZy-1">
          <mxGeometry x="26" y="160" width="78" height="78" as="geometry" />
        </mxCell>
        <mxCell id="d6Csa-l2WJFF3HP2sRZy-5" value="EC2 Instance" style="sketch=0;points=[[0,0,0],[0.25,0,0],[0.5,0,0],[0.75,0,0],[1,0,0],[0,1,0],[0.25,1,0],[0.5,1,0],[0.75,1,0],[1,1,0],[0,0.25,0],[0,0.5,0],[0,0.75,0],[1,0.25,0],[1,0.5,0],[1,0.75,0]];outlineConnect=0;fontColor=#232F3E;gradientColor=#F78E04;gradientDirection=north;fillColor=#D05C17;strokeColor=#ffffff;dashed=0;verticalLabelPosition=bottom;verticalAlign=top;align=center;html=1;fontSize=12;fontStyle=0;aspect=fixed;shape=mxgraph.aws4.resourceIcon;resIcon=mxgraph.aws4.ec2;" vertex="1" parent="d6Csa-l2WJFF3HP2sRZy-1">
          <mxGeometry x="26" y="410" width="78" height="78" as="geometry" />
        </mxCell>
        <mxCell id="d6Csa-l2WJFF3HP2sRZy-6" value="EC2 Instance" style="sketch=0;points=[[0,0,0],[0.25,0,0],[0.5,0,0],[0.75,0,0],[1,0,0],[0,1,0],[0.25,1,0],[0.5,1,0],[0.75,1,0],[1,1,0],[0,0.25,0],[0,0.5,0],[0,0.75,0],[1,0.25,0],[1,0.5,0],[1,0.75,0]];outlineConnect=0;fontColor=#232F3E;gradientColor=#F78E04;gradientDirection=north;fillColor=#D05C17;strokeColor=#ffffff;dashed=0;verticalLabelPosition=bottom;verticalAlign=top;align=center;html=1;fontSize=12;fontStyle=0;aspect=fixed;shape=mxgraph.aws4.resourceIcon;resIcon=mxgraph.aws4.ec2;" vertex="1" parent="d6Csa-l2WJFF3HP2sRZy-1">
          <mxGeometry x="26" y="50" width="78" height="78" as="geometry" />
        </mxCell>
        <mxCell id="gB9fAJGFMY831e_BJNsn-3" style="edgeStyle=orthogonalEdgeStyle;rounded=0;orthogonalLoop=1;jettySize=auto;html=1;endArrow=oval;endFill=1;" edge="1" parent="1" source="gB9fAJGFMY831e_BJNsn-1" target="gB9fAJGFMY831e_BJNsn-2">
          <mxGeometry relative="1" as="geometry">
            <Array as="points">
              <mxPoint x="-650" y="2355" />
              <mxPoint x="-650" y="2232" />
            </Array>
          </mxGeometry>
        </mxCell>
        <mxCell id="gB9fAJGFMY831e_BJNsn-4" style="edgeStyle=orthogonalEdgeStyle;rounded=0;orthogonalLoop=1;jettySize=auto;html=1;entryX=0;entryY=0.5;entryDx=0;entryDy=0;entryPerimeter=0;" edge="1" parent="1" source="gB9fAJGFMY831e_BJNsn-1" target="lx2OKLv6R97FphPEtWig-5">
          <mxGeometry relative="1" as="geometry">
            <Array as="points">
              <mxPoint x="-510" y="2385" />
              <mxPoint x="-510" y="2305" />
            </Array>
          </mxGeometry>
        </mxCell>
        <mxCell id="gB9fAJGFMY831e_BJNsn-5" style="edgeStyle=orthogonalEdgeStyle;rounded=0;orthogonalLoop=1;jettySize=auto;html=1;entryX=0;entryY=0.5;entryDx=0;entryDy=0;entryPerimeter=0;" edge="1" parent="1" source="gB9fAJGFMY831e_BJNsn-1" target="bVb_GX9Cb-DCjAQpeH2n-268">
          <mxGeometry relative="1" as="geometry">
            <Array as="points">
              <mxPoint x="-490" y="2385" />
              <mxPoint x="-490" y="2780" />
            </Array>
          </mxGeometry>
        </mxCell>
        <mxCell id="gB9fAJGFMY831e_BJNsn-6" style="edgeStyle=orthogonalEdgeStyle;rounded=0;orthogonalLoop=1;jettySize=auto;html=1;entryX=0;entryY=0.5;entryDx=0;entryDy=0;entryPerimeter=0;" edge="1" parent="1" source="gB9fAJGFMY831e_BJNsn-1" target="bVb_GX9Cb-DCjAQpeH2n-272">
          <mxGeometry relative="1" as="geometry">
            <Array as="points">
              <mxPoint x="-520" y="2385" />
              <mxPoint x="-520" y="3077" />
            </Array>
          </mxGeometry>
        </mxCell>
        <mxCell id="gB9fAJGFMY831e_BJNsn-1" value="Jenkins" style="image;aspect=fixed;perimeter=ellipsePerimeter;html=1;align=center;shadow=0;dashed=0;spacingTop=3;image=img/lib/active_directory/web_server.svg;" vertex="1" parent="1">
          <mxGeometry x="-698" y="2330" width="88" height="110" as="geometry" />
        </mxCell>
        <mxCell id="gB9fAJGFMY831e_BJNsn-2" value="IAM Role" style="sketch=0;outlineConnect=0;fontColor=#232F3E;gradientColor=none;fillColor=#BF0816;strokeColor=none;dashed=0;verticalLabelPosition=bottom;verticalAlign=top;align=center;html=1;fontSize=12;fontStyle=0;aspect=fixed;pointerEvents=1;shape=mxgraph.aws4.role;" vertex="1" parent="1">
          <mxGeometry x="-610" y="2210" width="78" height="44" as="geometry" />
        </mxCell>
      </root>
    </mxGraphModel>
  </diagram>
  <diagram name="MVP" id="8LvEtJmaEQks2CXZ9vWY">
    <mxGraphModel dx="2736" dy="-336" grid="1" gridSize="10" guides="1" tooltips="1" connect="1" arrows="1" fold="1" page="1" pageScale="1" pageWidth="850" pageHeight="1100" math="0" shadow="0">
      <root>
        <mxCell id="FWxLiaZfTDZu3BcVG6Ia-0" />
        <mxCell id="FWxLiaZfTDZu3BcVG6Ia-1" parent="FWxLiaZfTDZu3BcVG6Ia-0" />
        <mxCell id="FWxLiaZfTDZu3BcVG6Ia-2" value="AWS Account" style="points=[[0,0],[0.25,0],[0.5,0],[0.75,0],[1,0],[1,0.25],[1,0.5],[1,0.75],[1,1],[0.75,1],[0.5,1],[0.25,1],[0,1],[0,0.75],[0,0.5],[0,0.25]];outlineConnect=0;gradientColor=none;html=1;whiteSpace=wrap;fontSize=12;fontStyle=0;container=1;pointerEvents=0;collapsible=0;recursiveResize=0;shape=mxgraph.aws4.group;grIcon=mxgraph.aws4.group_account;strokeColor=#FF3333;fillColor=none;verticalAlign=top;align=left;spacingLeft=30;fontColor=#CD2264;dashed=0;labelPosition=center;verticalLabelPosition=middle;" parent="FWxLiaZfTDZu3BcVG6Ia-1" vertex="1">
          <mxGeometry x="-260" y="2120" width="1990" height="910" as="geometry" />
        </mxCell>
        <mxCell id="FWxLiaZfTDZu3BcVG6Ia-3" value="" style="swimlane;startSize=0;" parent="FWxLiaZfTDZu3BcVG6Ia-2" vertex="1">
          <mxGeometry x="40" y="50" width="390" height="570" as="geometry" />
        </mxCell>
        <mxCell id="FWxLiaZfTDZu3BcVG6Ia-4" value="EventBridge" style="sketch=0;points=[[0,0,0],[0.25,0,0],[0.5,0,0],[0.75,0,0],[1,0,0],[0,1,0],[0.25,1,0],[0.5,1,0],[0.75,1,0],[1,1,0],[0,0.25,0],[0,0.5,0],[0,0.75,0],[1,0.25,0],[1,0.5,0],[1,0.75,0]];outlineConnect=0;fontColor=#232F3E;gradientColor=#FF4F8B;gradientDirection=north;fillColor=#BC1356;strokeColor=#ffffff;dashed=0;verticalLabelPosition=bottom;verticalAlign=top;align=left;html=1;fontSize=12;fontStyle=0;aspect=fixed;shape=mxgraph.aws4.resourceIcon;resIcon=mxgraph.aws4.eventbridge;" parent="FWxLiaZfTDZu3BcVG6Ia-3" vertex="1">
          <mxGeometry width="50" height="50" as="geometry" />
        </mxCell>
        <mxCell id="FWxLiaZfTDZu3BcVG6Ia-11" value="Scheduled Rule -&lt;br&gt;cron 30-23-*-*-* UTC&lt;br&gt;&lt;i&gt;No QueueCount specified&lt;/i&gt;" style="sketch=0;outlineConnect=0;fontColor=#232F3E;gradientColor=none;fillColor=#B0084D;strokeColor=none;dashed=0;verticalLabelPosition=bottom;verticalAlign=top;align=center;html=1;fontSize=12;fontStyle=0;aspect=fixed;pointerEvents=1;shape=mxgraph.aws4.rule_3;" parent="FWxLiaZfTDZu3BcVG6Ia-3" vertex="1">
          <mxGeometry x="200" y="184" width="78" height="68" as="geometry" />
        </mxCell>
        <mxCell id="FWxLiaZfTDZu3BcVG6Ia-13" value="Automatic nightly restart" style="html=1;dashed=0;whitespace=wrap;shape=mxgraph.dfd.start;fillColor=#d5e8d4;strokeColor=#82b366;" parent="FWxLiaZfTDZu3BcVG6Ia-3" vertex="1">
          <mxGeometry x="70" y="110" width="151" height="70" as="geometry" />
        </mxCell>
        <mxCell id="FWxLiaZfTDZu3BcVG6Ia-14" value="Rule -&lt;br&gt;Event contains &lt;br&gt;AutoScalingGroupName" style="sketch=0;outlineConnect=0;fontColor=#232F3E;gradientColor=none;fillColor=#B0084D;strokeColor=none;dashed=0;verticalLabelPosition=bottom;verticalAlign=top;align=center;html=1;fontSize=12;fontStyle=0;aspect=fixed;pointerEvents=1;shape=mxgraph.aws4.rule_3;" parent="FWxLiaZfTDZu3BcVG6Ia-3" vertex="1">
          <mxGeometry x="200" y="440" width="78" height="68" as="geometry" />
        </mxCell>
        <mxCell id="FWxLiaZfTDZu3BcVG6Ia-15" style="edgeStyle=orthogonalEdgeStyle;rounded=0;orthogonalLoop=1;jettySize=auto;html=1;strokeColor=#000000;" parent="FWxLiaZfTDZu3BcVG6Ia-3" source="FWxLiaZfTDZu3BcVG6Ia-16" target="FWxLiaZfTDZu3BcVG6Ia-14" edge="1">
          <mxGeometry relative="1" as="geometry" />
        </mxCell>
        <mxCell id="FWxLiaZfTDZu3BcVG6Ia-16" value="PutEvent" style="sketch=0;outlineConnect=0;fontColor=#232F3E;gradientColor=none;fillColor=#B0084D;strokeColor=none;dashed=0;verticalLabelPosition=bottom;verticalAlign=top;align=center;html=1;fontSize=12;fontStyle=0;aspect=fixed;pointerEvents=1;shape=mxgraph.aws4.event_resource;" parent="FWxLiaZfTDZu3BcVG6Ia-3" vertex="1">
          <mxGeometry x="80" y="320" width="78" height="78" as="geometry" />
        </mxCell>
        <mxCell id="FWxLiaZfTDZu3BcVG6Ia-17" value="AWS Step Functions: AutoScalingGroup&amp;nbsp;workflow" style="points=[[0,0],[0.25,0],[0.5,0],[0.75,0],[1,0],[1,0.25],[1,0.5],[1,0.75],[1,1],[0.75,1],[0.5,1],[0.25,1],[0,1],[0,0.75],[0,0.5],[0,0.25]];outlineConnect=0;html=1;whiteSpace=wrap;fontSize=12;fontStyle=0;container=1;pointerEvents=0;collapsible=0;recursiveResize=0;shape=mxgraph.aws4.group;grIcon=mxgraph.aws4.group_aws_step_functions_workflow;strokeColor=#666666;fillColor=#f5f5f5;verticalAlign=top;align=left;spacingLeft=30;fontColor=#333333;dashed=0;" parent="FWxLiaZfTDZu3BcVG6Ia-2" vertex="1">
          <mxGeometry x="620" y="30" width="618" height="760" as="geometry" />
        </mxCell>
        <mxCell id="FWxLiaZfTDZu3BcVG6Ia-18" value="" style="points=[[0.25,0,0],[0.5,0,0],[0.75,0,0],[1,0.25,0],[1,0.5,0],[1,0.75,0],[0.75,1,0],[0.5,1,0],[0.25,1,0],[0,0.75,0],[0,0.5,0],[0,0.25,0]];shape=mxgraph.bpmn.task;whiteSpace=wrap;rectStyle=rounded;size=10;taskMarker=abstract;bpmnShapeType=subprocess;isLoopSub=1;outline=eventInt;symbol=parallelMultiple;fontColor=#000000;" parent="FWxLiaZfTDZu3BcVG6Ia-17" vertex="1">
          <mxGeometry x="344.54" y="340" width="214" height="80" as="geometry" />
        </mxCell>
        <mxCell id="FWxLiaZfTDZu3BcVG6Ia-19" style="edgeStyle=orthogonalEdgeStyle;rounded=0;orthogonalLoop=1;jettySize=auto;html=1;entryX=0.5;entryY=0;entryDx=0;entryDy=0;fillColor=#d5e8d4;strokeColor=#82b366;exitX=0.5;exitY=1;exitDx=0;exitDy=0;exitPerimeter=0;" parent="FWxLiaZfTDZu3BcVG6Ia-17" source="FWxLiaZfTDZu3BcVG6Ia-34" target="FWxLiaZfTDZu3BcVG6Ia-21" edge="1">
          <mxGeometry relative="1" as="geometry">
            <mxPoint x="374" y="161" as="sourcePoint" />
          </mxGeometry>
        </mxCell>
        <mxCell id="FWxLiaZfTDZu3BcVG6Ia-20" value="No" style="edgeStyle=orthogonalEdgeStyle;rounded=0;orthogonalLoop=1;jettySize=auto;html=1;fillColor=#d5e8d4;strokeColor=#82b366;entryX=1;entryY=0.5;entryDx=0;entryDy=0;" parent="FWxLiaZfTDZu3BcVG6Ia-17" source="FWxLiaZfTDZu3BcVG6Ia-21" target="FWxLiaZfTDZu3BcVG6Ia-28" edge="1">
          <mxGeometry x="-0.9323" y="10" relative="1" as="geometry">
            <Array as="points">
              <mxPoint x="374" y="250" />
              <mxPoint x="580" y="250" />
              <mxPoint x="580" y="700" />
            </Array>
            <mxPoint as="offset" />
          </mxGeometry>
        </mxCell>
        <mxCell id="FWxLiaZfTDZu3BcVG6Ia-21" value="Instances in Queue?" style="rhombus;verticalAlign=middle;labelPosition=right;verticalLabelPosition=middle;align=left;" parent="FWxLiaZfTDZu3BcVG6Ia-17" vertex="1">
          <mxGeometry x="359" y="200" width="30" height="30" as="geometry" />
        </mxCell>
        <mxCell id="FWxLiaZfTDZu3BcVG6Ia-22" style="edgeStyle=orthogonalEdgeStyle;rounded=0;orthogonalLoop=1;jettySize=auto;html=1;entryX=0.5;entryY=0;entryDx=0;entryDy=0;fillColor=#d5e8d4;strokeColor=#82b366;exitX=0;exitY=0.75;exitDx=0;exitDy=0;exitPerimeter=0;" parent="FWxLiaZfTDZu3BcVG6Ia-17" source="FWxLiaZfTDZu3BcVG6Ia-18" target="FWxLiaZfTDZu3BcVG6Ia-25" edge="1">
          <mxGeometry relative="1" as="geometry">
            <Array as="points">
              <mxPoint x="290.54" y="400" />
              <mxPoint x="290.54" y="410" />
            </Array>
          </mxGeometry>
        </mxCell>
        <mxCell id="FWxLiaZfTDZu3BcVG6Ia-23" value="Start Automation on Instance" style="sketch=0;outlineConnect=0;fontColor=#232F3E;gradientColor=none;fillColor=#B0084D;strokeColor=none;dashed=0;verticalLabelPosition=middle;verticalAlign=middle;align=left;html=1;fontSize=12;fontStyle=0;aspect=fixed;pointerEvents=1;shape=mxgraph.aws4.run_command;labelPosition=right;" parent="FWxLiaZfTDZu3BcVG6Ia-17" vertex="1">
          <mxGeometry x="351.99000000000007" y="365" width="42.55" height="30" as="geometry" />
        </mxCell>
        <mxCell id="FWxLiaZfTDZu3BcVG6Ia-24" value="Yes" style="edgeStyle=orthogonalEdgeStyle;rounded=0;orthogonalLoop=1;jettySize=auto;html=1;entryX=0.5;entryY=0;entryDx=0;entryDy=0;fillColor=#d5e8d4;strokeColor=#82b366;" parent="FWxLiaZfTDZu3BcVG6Ia-17" source="FWxLiaZfTDZu3BcVG6Ia-25" target="FWxLiaZfTDZu3BcVG6Ia-27" edge="1">
          <mxGeometry relative="1" as="geometry" />
        </mxCell>
        <mxCell id="FWxLiaZfTDZu3BcVG6Ia-25" value="Register Instance Success/Fail" style="rhombus;verticalAlign=middle;labelPosition=right;verticalLabelPosition=middle;align=left;" parent="FWxLiaZfTDZu3BcVG6Ia-17" vertex="1">
          <mxGeometry x="275.00000000000006" y="440" width="30" height="30" as="geometry" />
        </mxCell>
        <mxCell id="FWxLiaZfTDZu3BcVG6Ia-26" value="No" style="edgeStyle=orthogonalEdgeStyle;rounded=0;orthogonalLoop=1;jettySize=auto;html=1;entryX=0.5;entryY=0;entryDx=0;entryDy=0;fontColor=#000000;fillColor=#d5e8d4;strokeColor=#82b366;" parent="FWxLiaZfTDZu3BcVG6Ia-17" source="FWxLiaZfTDZu3BcVG6Ia-27" target="FWxLiaZfTDZu3BcVG6Ia-36" edge="1">
          <mxGeometry relative="1" as="geometry">
            <mxPoint x="303.7300000000005" y="699.9999999999995" as="targetPoint" />
          </mxGeometry>
        </mxCell>
        <mxCell id="FWxLiaZfTDZu3BcVG6Ia-27" value="Do I have more instances in the queue?" style="rhombus;verticalAlign=middle;labelPosition=right;verticalLabelPosition=middle;align=left;" parent="FWxLiaZfTDZu3BcVG6Ia-17" vertex="1">
          <mxGeometry x="275" y="520" width="30" height="30" as="geometry" />
        </mxCell>
        <mxCell id="FWxLiaZfTDZu3BcVG6Ia-28" value="&lt;font&gt;End&lt;/font&gt;" style="shape=image;html=1;verticalAlign=top;verticalLabelPosition=bottom;labelBackgroundColor=none;imageAspect=0;aspect=fixed;image=https://cdn0.iconfinder.com/data/icons/iconsweets2/40/finish_flag.png;fontColor=#000000;imageBackground=#97D077;opacity=50;" parent="FWxLiaZfTDZu3BcVG6Ia-17" vertex="1">
          <mxGeometry x="270" y="680" width="40" height="40" as="geometry" />
        </mxCell>
        <mxCell id="FWxLiaZfTDZu3BcVG6Ia-29" style="edgeStyle=orthogonalEdgeStyle;rounded=0;orthogonalLoop=1;jettySize=auto;html=1;entryX=0;entryY=1;entryDx=0;entryDy=0;entryPerimeter=0;strokeColor=#82b366;fontColor=#000000;fillColor=#d5e8d4;exitX=0;exitY=0.5;exitDx=0;exitDy=0;" parent="FWxLiaZfTDZu3BcVG6Ia-17" source="FWxLiaZfTDZu3BcVG6Ia-27" target="FWxLiaZfTDZu3BcVG6Ia-34" edge="1">
          <mxGeometry relative="1" as="geometry">
            <Array as="points">
              <mxPoint x="144" y="535" />
              <mxPoint x="144" y="160" />
            </Array>
            <mxPoint x="143.94736842105294" y="512" as="sourcePoint" />
          </mxGeometry>
        </mxCell>
        <mxCell id="FWxLiaZfTDZu3BcVG6Ia-30" style="edgeStyle=orthogonalEdgeStyle;rounded=0;orthogonalLoop=1;jettySize=auto;html=1;fillColor=#d5e8d4;strokeColor=#82b366;entryX=0.5;entryY=0;entryDx=0;entryDy=0;exitX=0;exitY=0.5;exitDx=0;exitDy=0;" parent="FWxLiaZfTDZu3BcVG6Ia-17" source="FWxLiaZfTDZu3BcVG6Ia-21" target="FWxLiaZfTDZu3BcVG6Ia-33" edge="1">
          <mxGeometry relative="1" as="geometry">
            <Array as="points" />
            <mxPoint x="304.4599999999996" y="410" as="targetPoint" />
            <mxPoint x="290" y="290" as="sourcePoint" />
          </mxGeometry>
        </mxCell>
        <mxCell id="FWxLiaZfTDZu3BcVG6Ia-31" value="Yes" style="edgeLabel;html=1;align=center;verticalAlign=middle;resizable=0;points=[];fontColor=#000000;" parent="FWxLiaZfTDZu3BcVG6Ia-30" vertex="1" connectable="0">
          <mxGeometry x="-0.3639" relative="1" as="geometry">
            <mxPoint as="offset" />
          </mxGeometry>
        </mxCell>
        <mxCell id="FWxLiaZfTDZu3BcVG6Ia-32" style="edgeStyle=orthogonalEdgeStyle;rounded=0;orthogonalLoop=1;jettySize=auto;html=1;entryX=0.017;entryY=0.133;entryDx=0;entryDy=0;entryPerimeter=0;strokeColor=#82b366;fontColor=#000000;fillColor=#d5e8d4;" parent="FWxLiaZfTDZu3BcVG6Ia-17" source="FWxLiaZfTDZu3BcVG6Ia-33" target="FWxLiaZfTDZu3BcVG6Ia-18" edge="1">
          <mxGeometry relative="1" as="geometry">
            <Array as="points">
              <mxPoint x="295.54" y="351" />
            </Array>
          </mxGeometry>
        </mxCell>
        <mxCell id="FWxLiaZfTDZu3BcVG6Ia-33" value="RunSSMCommand&lt;br&gt;Map (per EC2 Instance)" style="shape=image;html=1;verticalAlign=middle;verticalLabelPosition=middle;labelBackgroundColor=#ffffff;imageAspect=0;aspect=fixed;image=https://cdn4.iconfinder.com/data/icons/ionicons/512/icon-map-128.png;fontColor=#000000;labelPosition=right;align=left;" parent="FWxLiaZfTDZu3BcVG6Ia-17" vertex="1">
          <mxGeometry x="260" y="280" width="60" height="60" as="geometry" />
        </mxCell>
        <mxCell id="FWxLiaZfTDZu3BcVG6Ia-34" value="CalculateRestartPlan" style="sketch=0;points=[[0,0,0],[0.25,0,0],[0.5,0,0],[0.75,0,0],[1,0,0],[0,1,0],[0.25,1,0],[0.5,1,0],[0.75,1,0],[1,1,0],[0,0.25,0],[0,0.5,0],[0,0.75,0],[1,0.25,0],[1,0.5,0],[1,0.75,0]];outlineConnect=0;fontColor=#232F3E;gradientColor=#F78E04;gradientDirection=north;fillColor=#D05C17;strokeColor=#ffffff;dashed=0;verticalLabelPosition=middle;verticalAlign=middle;align=left;html=1;fontSize=12;fontStyle=0;aspect=fixed;shape=mxgraph.aws4.resourceIcon;resIcon=mxgraph.aws4.lambda;labelPosition=right;" parent="FWxLiaZfTDZu3BcVG6Ia-17" vertex="1">
          <mxGeometry x="354" y="120" width="40" height="40" as="geometry" />
        </mxCell>
        <mxCell id="FWxLiaZfTDZu3BcVG6Ia-35" style="edgeStyle=orthogonalEdgeStyle;rounded=0;orthogonalLoop=1;jettySize=auto;html=1;strokeColor=#97D077;" parent="FWxLiaZfTDZu3BcVG6Ia-17" source="FWxLiaZfTDZu3BcVG6Ia-36" target="FWxLiaZfTDZu3BcVG6Ia-28" edge="1">
          <mxGeometry relative="1" as="geometry" />
        </mxCell>
        <mxCell id="FWxLiaZfTDZu3BcVG6Ia-36" value="Send SNS Results" style="rhombus;verticalAlign=middle;labelPosition=right;verticalLabelPosition=middle;align=left;" parent="FWxLiaZfTDZu3BcVG6Ia-17" vertex="1">
          <mxGeometry x="275.00000000000006" y="610" width="30" height="30" as="geometry" />
        </mxCell>
        <mxCell id="FWxLiaZfTDZu3BcVG6Ia-37" style="edgeStyle=orthogonalEdgeStyle;rounded=0;orthogonalLoop=1;jettySize=auto;html=1;" parent="FWxLiaZfTDZu3BcVG6Ia-17" source="FWxLiaZfTDZu3BcVG6Ia-38" target="FWxLiaZfTDZu3BcVG6Ia-34" edge="1">
          <mxGeometry relative="1" as="geometry">
            <Array as="points">
              <mxPoint x="374" y="105" />
            </Array>
          </mxGeometry>
        </mxCell>
        <mxCell id="FWxLiaZfTDZu3BcVG6Ia-38" value="Start" style="ellipse;html=1;shape=endState;fillColor=#97D077;strokeColor=#00ff00;color=#00ff00;labelPosition=center;verticalLabelPosition=top;align=center;verticalAlign=bottom;" parent="FWxLiaZfTDZu3BcVG6Ia-17" vertex="1">
          <mxGeometry x="240" y="90" width="30" height="30" as="geometry" />
        </mxCell>
        <mxCell id="FWxLiaZfTDZu3BcVG6Ia-40" style="edgeStyle=orthogonalEdgeStyle;rounded=0;orthogonalLoop=1;jettySize=auto;html=1;fontColor=#000000;strokeColor=#005700;dashed=1;fillColor=#008a00;" parent="FWxLiaZfTDZu3BcVG6Ia-2" source="FWxLiaZfTDZu3BcVG6Ia-23" target="FWxLiaZfTDZu3BcVG6Ia-48" edge="1">
          <mxGeometry relative="1" as="geometry">
            <mxPoint x="1332" y="358" as="targetPoint" />
            <Array as="points">
              <mxPoint x="993" y="440" />
              <mxPoint x="1270" y="440" />
              <mxPoint x="1270" y="718" />
            </Array>
          </mxGeometry>
        </mxCell>
        <mxCell id="FWxLiaZfTDZu3BcVG6Ia-41" value="" style="swimlane;startSize=0;" parent="FWxLiaZfTDZu3BcVG6Ia-2" vertex="1">
          <mxGeometry x="1430" y="450" width="340" height="430" as="geometry" />
        </mxCell>
        <mxCell id="FWxLiaZfTDZu3BcVG6Ia-42" value="Systems Manager" style="sketch=0;points=[[0,0,0],[0.25,0,0],[0.5,0,0],[0.75,0,0],[1,0,0],[0,1,0],[0.25,1,0],[0.5,1,0],[0.75,1,0],[1,1,0],[0,0.25,0],[0,0.5,0],[0,0.75,0],[1,0.25,0],[1,0.5,0],[1,0.75,0]];points=[[0,0,0],[0.25,0,0],[0.5,0,0],[0.75,0,0],[1,0,0],[0,1,0],[0.25,1,0],[0.5,1,0],[0.75,1,0],[1,1,0],[0,0.25,0],[0,0.5,0],[0,0.75,0],[1,0.25,0],[1,0.5,0],[1,0.75,0]];outlineConnect=0;fontColor=#232F3E;gradientColor=#F34482;gradientDirection=north;fillColor=#BC1356;strokeColor=#ffffff;dashed=0;verticalLabelPosition=bottom;verticalAlign=top;align=left;html=1;fontSize=12;fontStyle=0;aspect=fixed;shape=mxgraph.aws4.resourceIcon;resIcon=mxgraph.aws4.systems_manager;" parent="FWxLiaZfTDZu3BcVG6Ia-41" vertex="1">
          <mxGeometry width="50" height="50" as="geometry" />
        </mxCell>
        <mxCell id="FWxLiaZfTDZu3BcVG6Ia-43" style="edgeStyle=orthogonalEdgeStyle;rounded=0;orthogonalLoop=1;jettySize=auto;html=1;endArrow=oval;endFill=1;" parent="FWxLiaZfTDZu3BcVG6Ia-41" source="FWxLiaZfTDZu3BcVG6Ia-48" target="FWxLiaZfTDZu3BcVG6Ia-46" edge="1">
          <mxGeometry relative="1" as="geometry" />
        </mxCell>
        <mxCell id="4TRaHyMIA776qZyPYzp6-17" style="edgeStyle=orthogonalEdgeStyle;rounded=0;orthogonalLoop=1;jettySize=auto;html=1;endArrow=oval;endFill=1;" parent="FWxLiaZfTDZu3BcVG6Ia-41" source="FWxLiaZfTDZu3BcVG6Ia-44" target="4TRaHyMIA776qZyPYzp6-16" edge="1">
          <mxGeometry relative="1" as="geometry" />
        </mxCell>
        <mxCell id="FWxLiaZfTDZu3BcVG6Ia-44" value="Run Command" style="sketch=0;outlineConnect=0;fontColor=#232F3E;gradientColor=none;fillColor=#B0084D;strokeColor=none;dashed=0;verticalLabelPosition=bottom;verticalAlign=top;align=center;html=1;fontSize=12;fontStyle=0;aspect=fixed;pointerEvents=1;shape=mxgraph.aws4.run_command;" parent="FWxLiaZfTDZu3BcVG6Ia-41" vertex="1">
          <mxGeometry x="230" y="240" width="78" height="55" as="geometry" />
        </mxCell>
        <mxCell id="FWxLiaZfTDZu3BcVG6Ia-45" style="edgeStyle=orthogonalEdgeStyle;rounded=0;orthogonalLoop=1;jettySize=auto;html=1;fontColor=#000000;" parent="FWxLiaZfTDZu3BcVG6Ia-41" source="FWxLiaZfTDZu3BcVG6Ia-46" target="FWxLiaZfTDZu3BcVG6Ia-49" edge="1">
          <mxGeometry relative="1" as="geometry" />
        </mxCell>
        <mxCell id="FWxLiaZfTDZu3BcVG6Ia-46" value="XPM Restart&lt;br&gt;Command Document" style="sketch=0;outlineConnect=0;fontColor=#232F3E;gradientColor=none;fillColor=#B0084D;strokeColor=none;dashed=0;verticalLabelPosition=bottom;verticalAlign=top;align=center;html=1;fontSize=12;fontStyle=0;aspect=fixed;pointerEvents=1;shape=mxgraph.aws4.documents;" parent="FWxLiaZfTDZu3BcVG6Ia-41" vertex="1">
          <mxGeometry x="130" y="320" width="47.59" height="58" as="geometry" />
        </mxCell>
        <mxCell id="FWxLiaZfTDZu3BcVG6Ia-47" style="edgeStyle=orthogonalEdgeStyle;rounded=0;orthogonalLoop=1;jettySize=auto;html=1;fontColor=#000000;" parent="FWxLiaZfTDZu3BcVG6Ia-41" source="FWxLiaZfTDZu3BcVG6Ia-46" target="FWxLiaZfTDZu3BcVG6Ia-44" edge="1">
          <mxGeometry relative="1" as="geometry">
            <Array as="points">
              <mxPoint x="210" y="340" />
              <mxPoint x="210" y="268" />
            </Array>
          </mxGeometry>
        </mxCell>
        <mxCell id="FWxLiaZfTDZu3BcVG6Ia-48" value="Automation" style="sketch=0;outlineConnect=0;fontColor=#232F3E;gradientColor=none;fillColor=#B0084D;strokeColor=none;dashed=0;verticalLabelPosition=bottom;verticalAlign=top;align=center;html=1;fontSize=12;fontStyle=0;aspect=fixed;pointerEvents=1;shape=mxgraph.aws4.automation;labelBackgroundColor=none;opacity=50;" parent="FWxLiaZfTDZu3BcVG6Ia-41" vertex="1">
          <mxGeometry x="40" y="233.5" width="68" height="68" as="geometry" />
        </mxCell>
        <mxCell id="FWxLiaZfTDZu3BcVG6Ia-49" value="Send Task Result" style="sketch=0;outlineConnect=0;fontColor=#232F3E;gradientColor=none;fillColor=#D45B07;strokeColor=none;dashed=0;verticalLabelPosition=bottom;verticalAlign=top;align=center;html=1;fontSize=12;fontStyle=0;aspect=fixed;pointerEvents=1;shape=mxgraph.aws4.ecs_task;labelBackgroundColor=none;opacity=50;" parent="FWxLiaZfTDZu3BcVG6Ia-41" vertex="1">
          <mxGeometry x="260" y="325" width="37" height="48" as="geometry" />
        </mxCell>
        <mxCell id="4TRaHyMIA776qZyPYzp6-16" value="AWS-RunShellScript&lt;br&gt;Document" style="sketch=0;outlineConnect=0;fontColor=#232F3E;gradientColor=none;fillColor=#B0084D;strokeColor=none;dashed=0;verticalLabelPosition=top;verticalAlign=bottom;align=center;html=1;fontSize=12;fontStyle=0;aspect=fixed;pointerEvents=1;shape=mxgraph.aws4.documents;labelPosition=center;" parent="FWxLiaZfTDZu3BcVG6Ia-41" vertex="1">
          <mxGeometry x="245.20000000000005" y="120" width="47.59" height="58" as="geometry" />
        </mxCell>
        <mxCell id="FWxLiaZfTDZu3BcVG6Ia-50" style="edgeStyle=orthogonalEdgeStyle;rounded=0;orthogonalLoop=1;jettySize=auto;html=1;strokeColor=#000000;fontColor=#000000;exitX=0.5;exitY=1;exitDx=0;exitDy=0;exitPerimeter=0;" parent="FWxLiaZfTDZu3BcVG6Ia-2" source="FWxLiaZfTDZu3BcVG6Ia-51" target="FWxLiaZfTDZu3BcVG6Ia-16" edge="1">
          <mxGeometry relative="1" as="geometry">
            <mxPoint x="648" y="314" as="sourcePoint" />
            <mxPoint x="1147" y="76" as="targetPoint" />
            <Array as="points">
              <mxPoint x="508" y="399" />
            </Array>
          </mxGeometry>
        </mxCell>
        <mxCell id="FWxLiaZfTDZu3BcVG6Ia-51" value="XPM Event Publisher &lt;br&gt;Lambda" style="sketch=0;points=[[0,0,0],[0.25,0,0],[0.5,0,0],[0.75,0,0],[1,0,0],[0,1,0],[0.25,1,0],[0.5,1,0],[0.75,1,0],[1,1,0],[0,0.25,0],[0,0.5,0],[0,0.75,0],[1,0.25,0],[1,0.5,0],[1,0.75,0]];outlineConnect=0;fontColor=#232F3E;gradientColor=#F78E04;gradientDirection=north;fillColor=#D05C17;strokeColor=#ffffff;dashed=0;verticalLabelPosition=top;verticalAlign=bottom;align=center;html=1;fontSize=12;fontStyle=0;aspect=fixed;shape=mxgraph.aws4.resourceIcon;resIcon=mxgraph.aws4.lambda;labelPosition=center;" parent="FWxLiaZfTDZu3BcVG6Ia-2" vertex="1">
          <mxGeometry x="480" y="239.75" width="56.5" height="56.5" as="geometry" />
        </mxCell>
        <mxCell id="4TRaHyMIA776qZyPYzp6-5" value="1) Get list of instances" style="edgeStyle=orthogonalEdgeStyle;rounded=0;orthogonalLoop=1;jettySize=auto;html=1;" parent="FWxLiaZfTDZu3BcVG6Ia-2" source="FWxLiaZfTDZu3BcVG6Ia-53" target="4TRaHyMIA776qZyPYzp6-4" edge="1">
          <mxGeometry x="-0.4386" y="10" relative="1" as="geometry">
            <Array as="points">
              <mxPoint x="1620" y="150" />
              <mxPoint x="1620" y="50" />
            </Array>
            <mxPoint as="offset" />
          </mxGeometry>
        </mxCell>
        <mxCell id="4TRaHyMIA776qZyPYzp6-6" value="2) Get Utilization Metric" style="edgeStyle=orthogonalEdgeStyle;rounded=0;orthogonalLoop=1;jettySize=auto;html=1;entryX=0;entryY=0.5;entryDx=0;entryDy=0;entryPerimeter=0;fillColor=#d5e8d4;strokeColor=#82b366;" parent="FWxLiaZfTDZu3BcVG6Ia-2" target="4TRaHyMIA776qZyPYzp6-3" edge="1">
          <mxGeometry x="-0.1624" y="10" relative="1" as="geometry">
            <mxPoint x="1418" y="180.0588235294117" as="sourcePoint" />
            <mxPoint x="1725" y="209" as="targetPoint" />
            <Array as="points">
              <mxPoint x="1630" y="180" />
              <mxPoint x="1630" y="139" />
            </Array>
            <mxPoint as="offset" />
          </mxGeometry>
        </mxCell>
        <mxCell id="4TRaHyMIA776qZyPYzp6-10" value="3) QueueCount = Number specified or (Number of Instances / 7)" style="edgeStyle=orthogonalEdgeStyle;rounded=0;orthogonalLoop=1;jettySize=auto;html=1;entryX=0;entryY=0.5;entryDx=0;entryDy=0;fillColor=#d5e8d4;strokeColor=#82b366;" parent="FWxLiaZfTDZu3BcVG6Ia-2" source="FWxLiaZfTDZu3BcVG6Ia-53" target="4TRaHyMIA776qZyPYzp6-9" edge="1">
          <mxGeometry x="0.4091" y="10" relative="1" as="geometry">
            <Array as="points">
              <mxPoint x="1490" y="180" />
              <mxPoint x="1490" y="260" />
              <mxPoint x="1725" y="260" />
            </Array>
            <mxPoint x="-1" as="offset" />
          </mxGeometry>
        </mxCell>
        <mxCell id="4TRaHyMIA776qZyPYzp6-11" style="edgeStyle=orthogonalEdgeStyle;rounded=0;orthogonalLoop=1;jettySize=auto;html=1;entryX=0;entryY=0.5;entryDx=0;entryDy=0;fillColor=#d5e8d4;strokeColor=#82b366;" parent="FWxLiaZfTDZu3BcVG6Ia-2" source="FWxLiaZfTDZu3BcVG6Ia-53" target="4TRaHyMIA776qZyPYzp6-9" edge="1">
          <mxGeometry relative="1" as="geometry">
            <Array as="points">
              <mxPoint x="1470" y="180" />
              <mxPoint x="1470" y="290" />
            </Array>
          </mxGeometry>
        </mxCell>
        <mxCell id="4TRaHyMIA776qZyPYzp6-12" value="4) Modify QueueCount by Utilization" style="edgeLabel;html=1;align=center;verticalAlign=middle;resizable=0;points=[];" parent="4TRaHyMIA776qZyPYzp6-11" vertex="1" connectable="0">
          <mxGeometry x="0.2516" y="1" relative="1" as="geometry">
            <mxPoint y="-9" as="offset" />
          </mxGeometry>
        </mxCell>
        <mxCell id="FWxLiaZfTDZu3BcVG6Ia-53" value="Calculate Restart Plan&lt;br&gt;Lambda" style="sketch=0;points=[[0,0,0],[0.25,0,0],[0.5,0,0],[0.75,0,0],[1,0,0],[0,1,0],[0.25,1,0],[0.5,1,0],[0.75,1,0],[1,1,0],[0,0.25,0],[0,0.5,0],[0,0.75,0],[1,0.25,0],[1,0.5,0],[1,0.75,0]];outlineConnect=0;fontColor=#232F3E;gradientColor=#F78E04;gradientDirection=north;fillColor=#D05C17;strokeColor=#ffffff;dashed=0;verticalLabelPosition=top;verticalAlign=bottom;align=center;html=1;fontSize=12;fontStyle=0;aspect=fixed;shape=mxgraph.aws4.resourceIcon;resIcon=mxgraph.aws4.lambda;labelPosition=center;" parent="FWxLiaZfTDZu3BcVG6Ia-2" vertex="1">
          <mxGeometry x="1340" y="140" width="80" height="80" as="geometry" />
        </mxCell>
        <mxCell id="FWxLiaZfTDZu3BcVG6Ia-54" style="edgeStyle=orthogonalEdgeStyle;rounded=0;orthogonalLoop=1;jettySize=auto;html=1;dashed=1;strokeColor=#000000;fontSize=20;fontColor=#000000;" parent="FWxLiaZfTDZu3BcVG6Ia-2" source="FWxLiaZfTDZu3BcVG6Ia-34" target="FWxLiaZfTDZu3BcVG6Ia-53" edge="1">
          <mxGeometry relative="1" as="geometry">
            <Array as="points">
              <mxPoint x="1190" y="180" />
              <mxPoint x="1190" y="180" />
            </Array>
          </mxGeometry>
        </mxCell>
        <mxCell id="FWxLiaZfTDZu3BcVG6Ia-55" style="edgeStyle=orthogonalEdgeStyle;rounded=0;orthogonalLoop=1;jettySize=auto;html=1;" parent="FWxLiaZfTDZu3BcVG6Ia-2" source="FWxLiaZfTDZu3BcVG6Ia-11" target="FWxLiaZfTDZu3BcVG6Ia-51" edge="1">
          <mxGeometry relative="1" as="geometry" />
        </mxCell>
        <mxCell id="FWxLiaZfTDZu3BcVG6Ia-56" value="EC2 Instance" style="sketch=0;points=[[0,0,0],[0.25,0,0],[0.5,0,0],[0.75,0,0],[1,0,0],[0,1,0],[0.25,1,0],[0.5,1,0],[0.75,1,0],[1,1,0],[0,0.25,0],[0,0.5,0],[0,0.75,0],[1,0.25,0],[1,0.5,0],[1,0.75,0]];outlineConnect=0;fontColor=#232F3E;gradientColor=#F78E04;gradientDirection=north;fillColor=#D05C17;strokeColor=#ffffff;dashed=0;verticalLabelPosition=bottom;verticalAlign=top;align=center;html=1;fontSize=12;fontStyle=0;aspect=fixed;shape=mxgraph.aws4.resourceIcon;resIcon=mxgraph.aws4.ec2;" parent="FWxLiaZfTDZu3BcVG6Ia-2" vertex="1">
          <mxGeometry x="1844.72" y="678.5" width="78" height="78" as="geometry" />
        </mxCell>
        <mxCell id="FWxLiaZfTDZu3BcVG6Ia-57" style="edgeStyle=orthogonalEdgeStyle;rounded=0;orthogonalLoop=1;jettySize=auto;html=1;endArrow=classic;endFill=1;" parent="FWxLiaZfTDZu3BcVG6Ia-2" source="FWxLiaZfTDZu3BcVG6Ia-44" target="4TRaHyMIA776qZyPYzp6-15" edge="1">
          <mxGeometry relative="1" as="geometry">
            <Array as="points">
              <mxPoint x="1790" y="718" />
              <mxPoint x="1790" y="674" />
            </Array>
          </mxGeometry>
        </mxCell>
        <mxCell id="FWxLiaZfTDZu3BcVG6Ia-58" value="State Machine&lt;br style=&quot;border-color: var(--border-color); color: rgb(0, 0, 0); font-family: Helvetica; font-size: 12px; font-style: normal; font-variant-ligatures: normal; font-variant-caps: normal; font-weight: 400; letter-spacing: normal; orphans: 2; text-align: center; text-indent: 0px; text-transform: none; widows: 2; word-spacing: 0px; -webkit-text-stroke-width: 0px; text-decoration-thickness: initial; text-decoration-style: initial; text-decoration-color: initial;&quot;&gt;&lt;span style=&quot;color: rgb(0, 0, 0); font-family: Helvetica; font-size: 12px; font-style: normal; font-variant-ligatures: normal; font-variant-caps: normal; font-weight: 400; letter-spacing: normal; orphans: 2; text-align: center; text-indent: 0px; text-transform: none; widows: 2; word-spacing: 0px; -webkit-text-stroke-width: 0px; text-decoration-thickness: initial; text-decoration-style: initial; text-decoration-color: initial; float: none; display: inline !important;&quot;&gt;initiated per&lt;/span&gt;&lt;br style=&quot;border-color: var(--border-color); color: rgb(0, 0, 0); font-family: Helvetica; font-size: 12px; font-style: normal; font-variant-ligatures: normal; font-variant-caps: normal; font-weight: 400; letter-spacing: normal; orphans: 2; text-align: center; text-indent: 0px; text-transform: none; widows: 2; word-spacing: 0px; -webkit-text-stroke-width: 0px; text-decoration-thickness: initial; text-decoration-style: initial; text-decoration-color: initial;&quot;&gt;&lt;span style=&quot;color: rgb(0, 0, 0); font-family: Helvetica; font-size: 12px; font-style: normal; font-variant-ligatures: normal; font-variant-caps: normal; font-weight: 400; letter-spacing: normal; orphans: 2; text-align: center; text-indent: 0px; text-transform: none; widows: 2; word-spacing: 0px; -webkit-text-stroke-width: 0px; text-decoration-thickness: initial; text-decoration-style: initial; text-decoration-color: initial; float: none; display: inline !important;&quot;&gt;AutoScalingGroup&lt;/span&gt;" style="edgeStyle=orthogonalEdgeStyle;rounded=0;orthogonalLoop=1;jettySize=auto;html=1;strokeColor=#000000;entryX=0;entryY=0.5;entryDx=0;entryDy=0;labelBackgroundColor=none;" parent="FWxLiaZfTDZu3BcVG6Ia-2" source="FWxLiaZfTDZu3BcVG6Ia-14" target="FWxLiaZfTDZu3BcVG6Ia-38" edge="1">
          <mxGeometry x="0.4176" y="39" relative="1" as="geometry">
            <Array as="points">
              <mxPoint x="590" y="520" />
              <mxPoint x="590" y="135" />
            </Array>
            <mxPoint x="680" y="110" as="targetPoint" />
            <mxPoint x="-30" y="14" as="offset" />
          </mxGeometry>
        </mxCell>
        <mxCell id="FWxLiaZfTDZu3BcVG6Ia-59" value="Event initiated&lt;br&gt;per AutoScalingGroup" style="text;html=1;align=center;verticalAlign=middle;resizable=0;points=[];autosize=1;strokeColor=none;fillColor=none;" parent="FWxLiaZfTDZu3BcVG6Ia-2" vertex="1">
          <mxGeometry x="430" y="400" width="140" height="40" as="geometry" />
        </mxCell>
        <mxCell id="FWxLiaZfTDZu3BcVG6Ia-60" style="edgeStyle=orthogonalEdgeStyle;rounded=0;orthogonalLoop=1;jettySize=auto;html=1;entryX=1;entryY=0.5;entryDx=0;entryDy=0;entryPerimeter=0;fontColor=#000000;dashed=1;fillColor=#a20025;strokeColor=#6F0000;" parent="FWxLiaZfTDZu3BcVG6Ia-2" source="FWxLiaZfTDZu3BcVG6Ia-49" target="FWxLiaZfTDZu3BcVG6Ia-18" edge="1">
          <mxGeometry relative="1" as="geometry">
            <Array as="points">
              <mxPoint x="1980" y="810" />
              <mxPoint x="1980" y="410" />
            </Array>
          </mxGeometry>
        </mxCell>
        <mxCell id="4TRaHyMIA776qZyPYzp6-3" value="CloudWatch POD &lt;br&gt;Utilization Metric" style="sketch=0;points=[[0,0,0],[0.25,0,0],[0.5,0,0],[0.75,0,0],[1,0,0],[0,1,0],[0.25,1,0],[0.5,1,0],[0.75,1,0],[1,1,0],[0,0.25,0],[0,0.5,0],[0,0.75,0],[1,0.25,0],[1,0.5,0],[1,0.75,0]];points=[[0,0,0],[0.25,0,0],[0.5,0,0],[0.75,0,0],[1,0,0],[0,1,0],[0.25,1,0],[0.5,1,0],[0.75,1,0],[1,1,0],[0,0.25,0],[0,0.5,0],[0,0.75,0],[1,0.25,0],[1,0.5,0],[1,0.75,0]];outlineConnect=0;fontColor=#232F3E;gradientColor=#F34482;gradientDirection=north;fillColor=#BC1356;strokeColor=#ffffff;dashed=0;verticalLabelPosition=bottom;verticalAlign=top;align=center;html=1;fontSize=12;fontStyle=0;aspect=fixed;shape=mxgraph.aws4.resourceIcon;resIcon=mxgraph.aws4.cloudwatch_2;" parent="FWxLiaZfTDZu3BcVG6Ia-2" vertex="1">
          <mxGeometry x="1716" y="100" width="78" height="78" as="geometry" />
        </mxCell>
        <mxCell id="4TRaHyMIA776qZyPYzp6-4" value="Auto Scaling group" style="points=[[0,0],[0.25,0],[0.5,0],[0.75,0],[1,0],[1,0.25],[1,0.5],[1,0.75],[1,1],[0.75,1],[0.5,1],[0.25,1],[0,1],[0,0.75],[0,0.5],[0,0.25]];outlineConnect=0;gradientColor=none;html=1;whiteSpace=wrap;fontSize=12;fontStyle=0;container=1;pointerEvents=0;collapsible=0;recursiveResize=0;shape=mxgraph.aws4.groupCenter;grIcon=mxgraph.aws4.group_auto_scaling_group;grStroke=1;strokeColor=#D86613;fillColor=none;verticalAlign=top;align=center;fontColor=#D86613;dashed=1;spacingTop=25;" parent="FWxLiaZfTDZu3BcVG6Ia-2" vertex="1">
          <mxGeometry x="1818.72" y="10" width="130" height="780" as="geometry" />
        </mxCell>
        <mxCell id="bjMTZpCLdOc_oFSHlXOv-0" value="EC2 Instance" style="sketch=0;points=[[0,0,0],[0.25,0,0],[0.5,0,0],[0.75,0,0],[1,0,0],[0,1,0],[0.25,1,0],[0.5,1,0],[0.75,1,0],[1,1,0],[0,0.25,0],[0,0.5,0],[0,0.75,0],[1,0.25,0],[1,0.5,0],[1,0.75,0]];outlineConnect=0;fontColor=#232F3E;gradientColor=#F78E04;gradientDirection=north;fillColor=#D05C17;strokeColor=#ffffff;dashed=0;verticalLabelPosition=bottom;verticalAlign=top;align=center;html=1;fontSize=12;fontStyle=0;aspect=fixed;shape=mxgraph.aws4.resourceIcon;resIcon=mxgraph.aws4.ec2;" vertex="1" parent="4TRaHyMIA776qZyPYzp6-4">
          <mxGeometry x="26" y="540" width="78" height="78" as="geometry" />
        </mxCell>
        <mxCell id="bjMTZpCLdOc_oFSHlXOv-1" value="EC2 Instance" style="sketch=0;points=[[0,0,0],[0.25,0,0],[0.5,0,0],[0.75,0,0],[1,0,0],[0,1,0],[0.25,1,0],[0.5,1,0],[0.75,1,0],[1,1,0],[0,0.25,0],[0,0.5,0],[0,0.75,0],[1,0.25,0],[1,0.5,0],[1,0.75,0]];outlineConnect=0;fontColor=#232F3E;gradientColor=#F78E04;gradientDirection=north;fillColor=#D05C17;strokeColor=#ffffff;dashed=0;verticalLabelPosition=bottom;verticalAlign=top;align=center;html=1;fontSize=12;fontStyle=0;aspect=fixed;shape=mxgraph.aws4.resourceIcon;resIcon=mxgraph.aws4.ec2;" vertex="1" parent="4TRaHyMIA776qZyPYzp6-4">
          <mxGeometry x="26" y="270" width="78" height="78" as="geometry" />
        </mxCell>
        <mxCell id="bjMTZpCLdOc_oFSHlXOv-2" value="EC2 Instance" style="sketch=0;points=[[0,0,0],[0.25,0,0],[0.5,0,0],[0.75,0,0],[1,0,0],[0,1,0],[0.25,1,0],[0.5,1,0],[0.75,1,0],[1,1,0],[0,0.25,0],[0,0.5,0],[0,0.75,0],[1,0.25,0],[1,0.5,0],[1,0.75,0]];outlineConnect=0;fontColor=#232F3E;gradientColor=#F78E04;gradientDirection=north;fillColor=#D05C17;strokeColor=#ffffff;dashed=0;verticalLabelPosition=bottom;verticalAlign=top;align=center;html=1;fontSize=12;fontStyle=0;aspect=fixed;shape=mxgraph.aws4.resourceIcon;resIcon=mxgraph.aws4.ec2;" vertex="1" parent="4TRaHyMIA776qZyPYzp6-4">
          <mxGeometry x="26" y="160" width="78" height="78" as="geometry" />
        </mxCell>
        <mxCell id="bjMTZpCLdOc_oFSHlXOv-3" value="EC2 Instance" style="sketch=0;points=[[0,0,0],[0.25,0,0],[0.5,0,0],[0.75,0,0],[1,0,0],[0,1,0],[0.25,1,0],[0.5,1,0],[0.75,1,0],[1,1,0],[0,0.25,0],[0,0.5,0],[0,0.75,0],[1,0.25,0],[1,0.5,0],[1,0.75,0]];outlineConnect=0;fontColor=#232F3E;gradientColor=#F78E04;gradientDirection=north;fillColor=#D05C17;strokeColor=#ffffff;dashed=0;verticalLabelPosition=bottom;verticalAlign=top;align=center;html=1;fontSize=12;fontStyle=0;aspect=fixed;shape=mxgraph.aws4.resourceIcon;resIcon=mxgraph.aws4.ec2;" vertex="1" parent="4TRaHyMIA776qZyPYzp6-4">
          <mxGeometry x="26" y="410" width="78" height="78" as="geometry" />
        </mxCell>
        <mxCell id="bjMTZpCLdOc_oFSHlXOv-4" value="EC2 Instance" style="sketch=0;points=[[0,0,0],[0.25,0,0],[0.5,0,0],[0.75,0,0],[1,0,0],[0,1,0],[0.25,1,0],[0.5,1,0],[0.75,1,0],[1,1,0],[0,0.25,0],[0,0.5,0],[0,0.75,0],[1,0.25,0],[1,0.5,0],[1,0.75,0]];outlineConnect=0;fontColor=#232F3E;gradientColor=#F78E04;gradientDirection=north;fillColor=#D05C17;strokeColor=#ffffff;dashed=0;verticalLabelPosition=bottom;verticalAlign=top;align=center;html=1;fontSize=12;fontStyle=0;aspect=fixed;shape=mxgraph.aws4.resourceIcon;resIcon=mxgraph.aws4.ec2;" vertex="1" parent="4TRaHyMIA776qZyPYzp6-4">
          <mxGeometry x="26" y="50" width="78" height="78" as="geometry" />
        </mxCell>
        <mxCell id="4TRaHyMIA776qZyPYzp6-9" value="Application &lt;br&gt;Logic" style="image;aspect=fixed;perimeter=ellipsePerimeter;html=1;align=center;shadow=0;dashed=0;fontColor=#000000;labelBackgroundColor=default;fontSize=12;spacingTop=3;image=img/lib/ibm/applications/application_logic.svg;" parent="FWxLiaZfTDZu3BcVG6Ia-2" vertex="1">
          <mxGeometry x="1750" y="260" width="60" height="60" as="geometry" />
        </mxCell>
        <mxCell id="4TRaHyMIA776qZyPYzp6-15" value="SSM Agent" style="sketch=0;pointerEvents=1;shadow=0;dashed=0;html=1;strokeColor=none;fillColor=#DF8C42;labelPosition=right;verticalLabelPosition=middle;verticalAlign=middle;align=left;outlineConnect=0;shape=mxgraph.veeam2.agent;" parent="FWxLiaZfTDZu3BcVG6Ia-2" vertex="1">
          <mxGeometry x="1830" y="663" width="21" height="21" as="geometry" />
        </mxCell>
      </root>
    </mxGraphModel>
  </diagram>
  <diagram name="Copy of MVP" id="IKOhiLYe9UScFO5izZPc">
    <mxGraphModel dx="3069" dy="-201" grid="1" gridSize="10" guides="1" tooltips="1" connect="1" arrows="1" fold="1" page="1" pageScale="1" pageWidth="850" pageHeight="1100" math="0" shadow="0">
      <root>
        <mxCell id="EW9-QkA9VRYgyV-Oi4qJ-0" />
        <mxCell id="EW9-QkA9VRYgyV-Oi4qJ-1" parent="EW9-QkA9VRYgyV-Oi4qJ-0" />
        <mxCell id="EW9-QkA9VRYgyV-Oi4qJ-2" value="AWS Account" style="points=[[0,0],[0.25,0],[0.5,0],[0.75,0],[1,0],[1,0.25],[1,0.5],[1,0.75],[1,1],[0.75,1],[0.5,1],[0.25,1],[0,1],[0,0.75],[0,0.5],[0,0.25]];outlineConnect=0;gradientColor=none;html=1;whiteSpace=wrap;fontSize=12;fontStyle=0;container=1;pointerEvents=0;collapsible=0;recursiveResize=0;shape=mxgraph.aws4.group;grIcon=mxgraph.aws4.group_account;strokeColor=#FF3333;fillColor=none;verticalAlign=top;align=left;spacingLeft=30;fontColor=#CD2264;dashed=0;labelPosition=center;verticalLabelPosition=middle;" vertex="1" parent="EW9-QkA9VRYgyV-Oi4qJ-1">
          <mxGeometry x="-260" y="2120" width="1430" height="1008" as="geometry" />
        </mxCell>
        <mxCell id="EW9-QkA9VRYgyV-Oi4qJ-3" value="" style="swimlane;startSize=0;" vertex="1" parent="EW9-QkA9VRYgyV-Oi4qJ-2">
          <mxGeometry x="40" y="50" width="390" height="650" as="geometry" />
        </mxCell>
        <mxCell id="EW9-QkA9VRYgyV-Oi4qJ-4" value="EventBridge" style="sketch=0;points=[[0,0,0],[0.25,0,0],[0.5,0,0],[0.75,0,0],[1,0,0],[0,1,0],[0.25,1,0],[0.5,1,0],[0.75,1,0],[1,1,0],[0,0.25,0],[0,0.5,0],[0,0.75,0],[1,0.25,0],[1,0.5,0],[1,0.75,0]];outlineConnect=0;fontColor=#232F3E;gradientColor=#FF4F8B;gradientDirection=north;fillColor=#BC1356;strokeColor=#ffffff;dashed=0;verticalLabelPosition=bottom;verticalAlign=top;align=left;html=1;fontSize=12;fontStyle=0;aspect=fixed;shape=mxgraph.aws4.resourceIcon;resIcon=mxgraph.aws4.eventbridge;" vertex="1" parent="EW9-QkA9VRYgyV-Oi4qJ-3">
          <mxGeometry width="50" height="50" as="geometry" />
        </mxCell>
        <mxCell id="J4jrHdX0L7202-eTvkBv-20" value="2) Run Restart on&amp;nbsp;&lt;br&gt;&lt;span style=&quot;text-indent: -0.25in; font-size: 9pt; font-family: Helvetica, sans-serif; background-image: initial; background-position: initial; background-size: initial; background-repeat: initial; background-attachment: initial; background-origin: initial; background-clip: initial;&quot;&gt;Specific&lt;/span&gt;&lt;span style=&quot;text-indent: -0.25in; font-size: 9pt; font-family: Helvetica, sans-serif;&quot;&gt; &lt;span style=&quot;background-image: initial; background-position: initial; background-size: initial; background-repeat: initial; background-attachment: initial; background-origin: initial; background-clip: initial;&quot;&gt;AutoScalingGroup&lt;/span&gt; &lt;br&gt;from External System&lt;/span&gt;&lt;p class=&quot;MsoListParagraph&quot;&gt;&lt;/p&gt;" style="html=1;dashed=0;whitespace=wrap;shape=mxgraph.dfd.start;fillColor=#dae8fc;strokeColor=#6c8ebf;" vertex="1" parent="EW9-QkA9VRYgyV-Oi4qJ-3">
          <mxGeometry x="7" y="320" width="146" height="60" as="geometry" />
        </mxCell>
        <mxCell id="J4jrHdX0L7202-eTvkBv-21" value="PutEvent" style="sketch=0;outlineConnect=0;fontColor=#232F3E;gradientColor=none;fillColor=#B0084D;strokeColor=none;dashed=0;verticalLabelPosition=bottom;verticalAlign=top;align=center;html=1;fontSize=12;fontStyle=0;aspect=fixed;pointerEvents=1;shape=mxgraph.aws4.event_resource;" vertex="1" parent="EW9-QkA9VRYgyV-Oi4qJ-3">
          <mxGeometry x="179.25" y="512" width="78" height="78" as="geometry" />
        </mxCell>
        <mxCell id="J4jrHdX0L7202-eTvkBv-22" value="Rule" style="sketch=0;outlineConnect=0;fontColor=#232F3E;gradientColor=none;fillColor=#B0084D;strokeColor=none;dashed=0;verticalLabelPosition=bottom;verticalAlign=top;align=center;html=1;fontSize=12;fontStyle=0;aspect=fixed;pointerEvents=1;shape=mxgraph.aws4.rule_3;" vertex="1" parent="EW9-QkA9VRYgyV-Oi4qJ-3">
          <mxGeometry x="297.25" y="517" width="78" height="68" as="geometry" />
        </mxCell>
        <mxCell id="J4jrHdX0L7202-eTvkBv-23" style="edgeStyle=orthogonalEdgeStyle;rounded=0;orthogonalLoop=1;jettySize=auto;html=1;" edge="1" parent="EW9-QkA9VRYgyV-Oi4qJ-3" source="J4jrHdX0L7202-eTvkBv-21" target="J4jrHdX0L7202-eTvkBv-22">
          <mxGeometry relative="1" as="geometry">
            <mxPoint x="235.25" y="-576.9473684210525" as="targetPoint" />
          </mxGeometry>
        </mxCell>
        <mxCell id="J4jrHdX0L7202-eTvkBv-24" value="3) Run Restart on&amp;nbsp;&lt;br&gt;&lt;div style=&quot;text-indent: 0px;&quot;&gt;&lt;span style=&quot;background: initial; font-size: 9pt; text-indent: -0.25in; font-family: Helvetica, sans-serif;&quot;&gt;Target&lt;/span&gt;&lt;span style=&quot;background-color: initial; font-size: 9pt; text-indent: -0.25in; font-family: Helvetica, sans-serif;&quot;&gt; &lt;span style=&quot;background-image: initial; background-position: initial; background-size: initial; background-repeat: initial; background-attachment: initial; background-origin: initial; background-clip: initial;&quot;&gt;Instance&lt;/span&gt;&lt;/span&gt;&lt;/div&gt;&lt;span style=&quot;text-indent: -0.25in; font-size: 9pt; font-family: Helvetica, sans-serif;&quot;&gt;&lt;span style=&quot;background-image: initial; background-position: initial; background-size: initial; background-repeat: initial; background-attachment: initial; background-origin: initial; background-clip: initial;&quot;&gt;from&amp;nbsp;&lt;/span&gt;&lt;/span&gt;&lt;span style=&quot;text-indent: -0.25in; background-image: initial; background-position: initial; background-size: initial; background-repeat: initial; background-attachment: initial; background-origin: initial; background-clip: initial;&quot;&gt;External System&lt;/span&gt;&lt;p class=&quot;MsoListParagraph&quot;&gt;&lt;/p&gt;" style="html=1;dashed=0;whitespace=wrap;shape=mxgraph.dfd.start;fillColor=#dae8fc;strokeColor=#6c8ebf;" vertex="1" parent="EW9-QkA9VRYgyV-Oi4qJ-3">
          <mxGeometry x="36.75" y="510" width="128.5" height="82" as="geometry" />
        </mxCell>
        <mxCell id="J4jrHdX0L7202-eTvkBv-25" value="PutEvent" style="sketch=0;outlineConnect=0;fontColor=#232F3E;gradientColor=none;fillColor=#B0084D;strokeColor=none;dashed=0;verticalLabelPosition=bottom;verticalAlign=top;align=center;html=1;fontSize=12;fontStyle=0;aspect=fixed;pointerEvents=1;shape=mxgraph.aws4.event_resource;" vertex="1" parent="EW9-QkA9VRYgyV-Oi4qJ-3">
          <mxGeometry x="148" y="190" width="78" height="78" as="geometry" />
        </mxCell>
        <mxCell id="J4jrHdX0L7202-eTvkBv-26" value="Rule" style="sketch=0;outlineConnect=0;fontColor=#232F3E;gradientColor=none;fillColor=#B0084D;strokeColor=none;dashed=0;verticalLabelPosition=bottom;verticalAlign=top;align=center;html=1;fontSize=12;fontStyle=0;aspect=fixed;pointerEvents=1;shape=mxgraph.aws4.rule_3;" vertex="1" parent="EW9-QkA9VRYgyV-Oi4qJ-3">
          <mxGeometry x="286" y="195" width="78" height="68" as="geometry" />
        </mxCell>
        <mxCell id="J4jrHdX0L7202-eTvkBv-27" style="edgeStyle=orthogonalEdgeStyle;rounded=0;orthogonalLoop=1;jettySize=auto;html=1;" edge="1" parent="EW9-QkA9VRYgyV-Oi4qJ-3" source="J4jrHdX0L7202-eTvkBv-25" target="J4jrHdX0L7202-eTvkBv-26">
          <mxGeometry relative="1" as="geometry">
            <mxPoint x="538" y="-3066.9473684210525" as="targetPoint" />
          </mxGeometry>
        </mxCell>
        <mxCell id="J4jrHdX0L7202-eTvkBv-28" value="1) Run Restart on all &lt;br&gt;NGGF instances in AWS&lt;br&gt;From &lt;br&gt;External System" style="html=1;dashed=0;whitespace=wrap;shape=mxgraph.dfd.start;fillColor=#dae8fc;strokeColor=#6c8ebf;" vertex="1" parent="EW9-QkA9VRYgyV-Oi4qJ-3">
          <mxGeometry x="7" y="110" width="151" height="70" as="geometry" />
        </mxCell>
        <mxCell id="J4jrHdX0L7202-eTvkBv-29" value="Rule" style="sketch=0;outlineConnect=0;fontColor=#232F3E;gradientColor=none;fillColor=#B0084D;strokeColor=none;dashed=0;verticalLabelPosition=bottom;verticalAlign=top;align=center;html=1;fontSize=12;fontStyle=0;aspect=fixed;pointerEvents=1;shape=mxgraph.aws4.rule_3;" vertex="1" parent="EW9-QkA9VRYgyV-Oi4qJ-3">
          <mxGeometry x="285" y="335" width="78" height="68" as="geometry" />
        </mxCell>
        <mxCell id="J4jrHdX0L7202-eTvkBv-30" style="edgeStyle=orthogonalEdgeStyle;rounded=0;orthogonalLoop=1;jettySize=auto;html=1;strokeColor=#000000;" edge="1" parent="EW9-QkA9VRYgyV-Oi4qJ-3" source="J4jrHdX0L7202-eTvkBv-31" target="J4jrHdX0L7202-eTvkBv-29">
          <mxGeometry relative="1" as="geometry" />
        </mxCell>
        <mxCell id="J4jrHdX0L7202-eTvkBv-31" value="PutEvent" style="sketch=0;outlineConnect=0;fontColor=#232F3E;gradientColor=none;fillColor=#B0084D;strokeColor=none;dashed=0;verticalLabelPosition=bottom;verticalAlign=top;align=center;html=1;fontSize=12;fontStyle=0;aspect=fixed;pointerEvents=1;shape=mxgraph.aws4.event_resource;" vertex="1" parent="EW9-QkA9VRYgyV-Oi4qJ-3">
          <mxGeometry x="167" y="330" width="78" height="78" as="geometry" />
        </mxCell>
        <mxCell id="J4jrHdX0L7202-eTvkBv-35" style="edgeStyle=orthogonalEdgeStyle;rounded=0;orthogonalLoop=1;jettySize=auto;html=1;entryX=0;entryY=0.5;entryDx=0;entryDy=0;entryPerimeter=0;" edge="1" parent="EW9-QkA9VRYgyV-Oi4qJ-3" source="J4jrHdX0L7202-eTvkBv-38" target="J4jrHdX0L7202-eTvkBv-28">
          <mxGeometry relative="1" as="geometry">
            <Array as="points">
              <mxPoint x="-112" y="225" />
              <mxPoint x="-112" y="145" />
            </Array>
          </mxGeometry>
        </mxCell>
        <mxCell id="J4jrHdX0L7202-eTvkBv-36" style="edgeStyle=orthogonalEdgeStyle;rounded=0;orthogonalLoop=1;jettySize=auto;html=1;entryX=0;entryY=0.5;entryDx=0;entryDy=0;entryPerimeter=0;" edge="1" parent="EW9-QkA9VRYgyV-Oi4qJ-3" source="J4jrHdX0L7202-eTvkBv-38" target="J4jrHdX0L7202-eTvkBv-20">
          <mxGeometry relative="1" as="geometry">
            <Array as="points">
              <mxPoint x="-92" y="225" />
              <mxPoint x="-92" y="350" />
            </Array>
          </mxGeometry>
        </mxCell>
        <mxCell id="J4jrHdX0L7202-eTvkBv-37" style="edgeStyle=orthogonalEdgeStyle;rounded=0;orthogonalLoop=1;jettySize=auto;html=1;entryX=0;entryY=0.5;entryDx=0;entryDy=0;entryPerimeter=0;" edge="1" parent="EW9-QkA9VRYgyV-Oi4qJ-3" source="J4jrHdX0L7202-eTvkBv-38" target="J4jrHdX0L7202-eTvkBv-24">
          <mxGeometry relative="1" as="geometry">
            <Array as="points">
              <mxPoint x="-122" y="225" />
              <mxPoint x="-122" y="550" />
              <mxPoint x="37" y="550" />
            </Array>
          </mxGeometry>
        </mxCell>
        <mxCell id="J4jrHdX0L7202-eTvkBv-38" value="Jenkins" style="image;aspect=fixed;perimeter=ellipsePerimeter;html=1;align=center;shadow=0;dashed=0;spacingTop=3;image=img/lib/active_directory/web_server.svg;" vertex="1" parent="EW9-QkA9VRYgyV-Oi4qJ-3">
          <mxGeometry x="-300" y="170" width="88" height="110" as="geometry" />
        </mxCell>
        <mxCell id="EW9-QkA9VRYgyV-Oi4qJ-10" value="Internal processes" style="points=[[0,0],[0.25,0],[0.5,0],[0.75,0],[1,0],[1,0.25],[1,0.5],[1,0.75],[1,1],[0.75,1],[0.5,1],[0.25,1],[0,1],[0,0.75],[0,0.5],[0,0.25]];outlineConnect=0;html=1;whiteSpace=wrap;fontSize=12;fontStyle=0;container=1;pointerEvents=0;collapsible=0;recursiveResize=0;shape=mxgraph.aws4.group;grIcon=mxgraph.aws4.group_aws_step_functions_workflow;strokeColor=#666666;fillColor=#f5f5f5;verticalAlign=top;align=left;spacingLeft=30;fontColor=#333333;dashed=0;" vertex="1" parent="EW9-QkA9VRYgyV-Oi4qJ-2">
          <mxGeometry x="470" y="30" width="768" height="760" as="geometry" />
        </mxCell>
        <mxCell id="EW9-QkA9VRYgyV-Oi4qJ-46" value="Restart" style="edgeStyle=orthogonalEdgeStyle;rounded=0;orthogonalLoop=1;jettySize=auto;html=1;entryX=0;entryY=0.5;entryDx=0;entryDy=0;exitX=1;exitY=0.5;exitDx=0;exitDy=0;" edge="1" parent="EW9-QkA9VRYgyV-Oi4qJ-2" source="EW9-QkA9VRYgyV-Oi4qJ-3" target="EW9-QkA9VRYgyV-Oi4qJ-60">
          <mxGeometry x="0.0644" y="24" relative="1" as="geometry">
            <Array as="points">
              <mxPoint x="920" y="375" />
              <mxPoint x="920" y="410" />
            </Array>
            <mxPoint x="1" as="offset" />
            <mxPoint x="317.99999999999955" y="524" as="sourcePoint" />
          </mxGeometry>
        </mxCell>
        <mxCell id="EW9-QkA9VRYgyV-Oi4qJ-54" value="EC2 Instance" style="sketch=0;points=[[0,0,0],[0.25,0,0],[0.5,0,0],[0.75,0,0],[1,0,0],[0,1,0],[0.25,1,0],[0.5,1,0],[0.75,1,0],[1,1,0],[0,0.25,0],[0,0.5,0],[0,0.75,0],[1,0.25,0],[1,0.5,0],[1,0.75,0]];outlineConnect=0;fontColor=#232F3E;gradientColor=#F78E04;gradientDirection=north;fillColor=#D05C17;strokeColor=#ffffff;dashed=0;verticalLabelPosition=bottom;verticalAlign=top;align=center;html=1;fontSize=12;fontStyle=0;aspect=fixed;shape=mxgraph.aws4.resourceIcon;resIcon=mxgraph.aws4.ec2;" vertex="1" parent="EW9-QkA9VRYgyV-Oi4qJ-2">
          <mxGeometry x="1286" y="688.5" width="78" height="78" as="geometry" />
        </mxCell>
        <mxCell id="EW9-QkA9VRYgyV-Oi4qJ-60" value="Auto Scaling group" style="points=[[0,0],[0.25,0],[0.5,0],[0.75,0],[1,0],[1,0.25],[1,0.5],[1,0.75],[1,1],[0.75,1],[0.5,1],[0.25,1],[0,1],[0,0.75],[0,0.5],[0,0.25]];outlineConnect=0;gradientColor=none;html=1;whiteSpace=wrap;fontSize=12;fontStyle=0;container=1;pointerEvents=0;collapsible=0;recursiveResize=0;shape=mxgraph.aws4.groupCenter;grIcon=mxgraph.aws4.group_auto_scaling_group;grStroke=1;strokeColor=#D86613;fillColor=none;verticalAlign=top;align=center;fontColor=#D86613;dashed=1;spacingTop=25;" vertex="1" parent="EW9-QkA9VRYgyV-Oi4qJ-2">
          <mxGeometry x="1260" y="20" width="130" height="780" as="geometry" />
        </mxCell>
        <mxCell id="EW9-QkA9VRYgyV-Oi4qJ-61" value="EC2 Instance" style="sketch=0;points=[[0,0,0],[0.25,0,0],[0.5,0,0],[0.75,0,0],[1,0,0],[0,1,0],[0.25,1,0],[0.5,1,0],[0.75,1,0],[1,1,0],[0,0.25,0],[0,0.5,0],[0,0.75,0],[1,0.25,0],[1,0.5,0],[1,0.75,0]];outlineConnect=0;fontColor=#232F3E;gradientColor=#F78E04;gradientDirection=north;fillColor=#D05C17;strokeColor=#ffffff;dashed=0;verticalLabelPosition=bottom;verticalAlign=top;align=center;html=1;fontSize=12;fontStyle=0;aspect=fixed;shape=mxgraph.aws4.resourceIcon;resIcon=mxgraph.aws4.ec2;" vertex="1" parent="EW9-QkA9VRYgyV-Oi4qJ-60">
          <mxGeometry x="26" y="540" width="78" height="78" as="geometry" />
        </mxCell>
        <mxCell id="EW9-QkA9VRYgyV-Oi4qJ-62" value="EC2 Instance" style="sketch=0;points=[[0,0,0],[0.25,0,0],[0.5,0,0],[0.75,0,0],[1,0,0],[0,1,0],[0.25,1,0],[0.5,1,0],[0.75,1,0],[1,1,0],[0,0.25,0],[0,0.5,0],[0,0.75,0],[1,0.25,0],[1,0.5,0],[1,0.75,0]];outlineConnect=0;fontColor=#232F3E;gradientColor=#F78E04;gradientDirection=north;fillColor=#D05C17;strokeColor=#ffffff;dashed=0;verticalLabelPosition=bottom;verticalAlign=top;align=center;html=1;fontSize=12;fontStyle=0;aspect=fixed;shape=mxgraph.aws4.resourceIcon;resIcon=mxgraph.aws4.ec2;" vertex="1" parent="EW9-QkA9VRYgyV-Oi4qJ-60">
          <mxGeometry x="26" y="270" width="78" height="78" as="geometry" />
        </mxCell>
        <mxCell id="EW9-QkA9VRYgyV-Oi4qJ-63" value="EC2 Instance" style="sketch=0;points=[[0,0,0],[0.25,0,0],[0.5,0,0],[0.75,0,0],[1,0,0],[0,1,0],[0.25,1,0],[0.5,1,0],[0.75,1,0],[1,1,0],[0,0.25,0],[0,0.5,0],[0,0.75,0],[1,0.25,0],[1,0.5,0],[1,0.75,0]];outlineConnect=0;fontColor=#232F3E;gradientColor=#F78E04;gradientDirection=north;fillColor=#D05C17;strokeColor=#ffffff;dashed=0;verticalLabelPosition=bottom;verticalAlign=top;align=center;html=1;fontSize=12;fontStyle=0;aspect=fixed;shape=mxgraph.aws4.resourceIcon;resIcon=mxgraph.aws4.ec2;" vertex="1" parent="EW9-QkA9VRYgyV-Oi4qJ-60">
          <mxGeometry x="26" y="160" width="78" height="78" as="geometry" />
        </mxCell>
        <mxCell id="EW9-QkA9VRYgyV-Oi4qJ-64" value="EC2 Instance" style="sketch=0;points=[[0,0,0],[0.25,0,0],[0.5,0,0],[0.75,0,0],[1,0,0],[0,1,0],[0.25,1,0],[0.5,1,0],[0.75,1,0],[1,1,0],[0,0.25,0],[0,0.5,0],[0,0.75,0],[1,0.25,0],[1,0.5,0],[1,0.75,0]];outlineConnect=0;fontColor=#232F3E;gradientColor=#F78E04;gradientDirection=north;fillColor=#D05C17;strokeColor=#ffffff;dashed=0;verticalLabelPosition=bottom;verticalAlign=top;align=center;html=1;fontSize=12;fontStyle=0;aspect=fixed;shape=mxgraph.aws4.resourceIcon;resIcon=mxgraph.aws4.ec2;" vertex="1" parent="EW9-QkA9VRYgyV-Oi4qJ-60">
          <mxGeometry x="26" y="410" width="78" height="78" as="geometry" />
        </mxCell>
        <mxCell id="EW9-QkA9VRYgyV-Oi4qJ-65" value="EC2 Instance" style="sketch=0;points=[[0,0,0],[0.25,0,0],[0.5,0,0],[0.75,0,0],[1,0,0],[0,1,0],[0.25,1,0],[0.5,1,0],[0.75,1,0],[1,1,0],[0,0.25,0],[0,0.5,0],[0,0.75,0],[1,0.25,0],[1,0.5,0],[1,0.75,0]];outlineConnect=0;fontColor=#232F3E;gradientColor=#F78E04;gradientDirection=north;fillColor=#D05C17;strokeColor=#ffffff;dashed=0;verticalLabelPosition=bottom;verticalAlign=top;align=center;html=1;fontSize=12;fontStyle=0;aspect=fixed;shape=mxgraph.aws4.resourceIcon;resIcon=mxgraph.aws4.ec2;" vertex="1" parent="EW9-QkA9VRYgyV-Oi4qJ-60">
          <mxGeometry x="26" y="50" width="78" height="78" as="geometry" />
        </mxCell>
        <mxCell id="J4jrHdX0L7202-eTvkBv-39" value="IAM Role" style="sketch=0;outlineConnect=0;fontColor=#232F3E;gradientColor=none;fillColor=#BF0816;strokeColor=none;dashed=0;verticalLabelPosition=bottom;verticalAlign=top;align=center;html=1;fontSize=12;fontStyle=0;aspect=fixed;pointerEvents=1;shape=mxgraph.aws4.role;" vertex="1" parent="EW9-QkA9VRYgyV-Oi4qJ-2">
          <mxGeometry x="60" y="746" width="78" height="44" as="geometry" />
        </mxCell>
        <mxCell id="J4jrHdX0L7202-eTvkBv-34" style="edgeStyle=orthogonalEdgeStyle;rounded=0;orthogonalLoop=1;jettySize=auto;html=1;endArrow=oval;endFill=1;" edge="1" parent="EW9-QkA9VRYgyV-Oi4qJ-2" source="J4jrHdX0L7202-eTvkBv-38" target="J4jrHdX0L7202-eTvkBv-39">
          <mxGeometry relative="1" as="geometry">
            <Array as="points">
              <mxPoint x="-212" y="370" />
              <mxPoint x="-216" y="370" />
              <mxPoint x="-216" y="832" />
            </Array>
          </mxGeometry>
        </mxCell>
      </root>
    </mxGraphModel>
  </diagram>
  <diagram id="chF7cFLapHzQlgWO3eU8" name="Cost">
    <mxGraphModel dx="200" dy="491" grid="1" gridSize="10" guides="1" tooltips="1" connect="1" arrows="1" fold="1" page="1" pageScale="1" pageWidth="850" pageHeight="1100" math="0" shadow="0">
      <root>
        <mxCell id="0" />
        <mxCell id="1" parent="0" />
        <mxCell id="8pCzkMkVeHLoyrRsEHDk-1" value="&lt;div style=&quot;font-size: 19px;&quot;&gt;Pricing&lt;/div&gt;&lt;div style=&quot;font-size: 19px;&quot;&gt;---------------------------------------------&lt;/div&gt;&lt;div style=&quot;font-size: 19px;&quot;&gt;EventBridge:*&lt;/div&gt;&lt;div style=&quot;font-size: 19px;&quot;&gt;$1.00/million custom events published&lt;/div&gt;&lt;div style=&quot;font-size: 19px;&quot;&gt;Invocations&lt;span style=&quot;font-size: 19px;&quot;&gt; &lt;/span&gt;$0.20 per million&lt;/div&gt;&lt;div style=&quot;font-size: 19px;&quot;&gt;&lt;br style=&quot;font-size: 19px;&quot;&gt;&lt;/div&gt;&lt;div style=&quot;font-size: 19px;&quot;&gt;Estimated events published per Annum - Jenkins? 0 - 10,000?&lt;/div&gt;&lt;div style=&quot;font-size: 19px;&quot;&gt;Estimated Invocations published per Annum - Jenkins? 0 - 10,000?&lt;/div&gt;&lt;div style=&quot;font-size: 19px;&quot;&gt;Estimated Events per Annum - Nightly Restart? 365&lt;/div&gt;&lt;div style=&quot;font-size: 19px;&quot;&gt;Estimated Invocations per Annum - Nightly Restart? 365&lt;/div&gt;&lt;div style=&quot;font-size: 19px;&quot;&gt;&lt;br style=&quot;font-size: 19px;&quot;&gt;&lt;/div&gt;&lt;div style=&quot;font-size: 19px;&quot;&gt;Low estimate Total: $0 per annum&lt;/div&gt;&lt;div style=&quot;font-size: 19px;&quot;&gt;High estimate Total: &amp;lt;$1.20 per annum&lt;/div&gt;&lt;div style=&quot;font-size: 19px;&quot;&gt;---------------------------------------------&lt;/div&gt;&lt;div style=&quot;font-size: 19px;&quot;&gt;Lambda:&lt;/div&gt;&lt;div style=&quot;font-size: 19px;&quot;&gt;$0.20 per 1M requests&lt;/div&gt;&lt;div style=&quot;font-size: 19px;&quot;&gt;$0.0000166667 for every GB-second&lt;/div&gt;&lt;div style=&quot;font-size: 19px;&quot;&gt;&lt;br style=&quot;font-size: 19px;&quot;&gt;&lt;/div&gt;&lt;div style=&quot;font-size: 19px;&quot;&gt;&lt;br style=&quot;font-size: 19px;&quot;&gt;&lt;/div&gt;&lt;div style=&quot;font-size: 19px;&quot;&gt;Estimated Invocations per annum?&lt;/div&gt;&lt;div style=&quot;font-size: 19px;&quot;&gt;&lt;span style=&quot;font-size: 19px;&quot;&gt; &lt;/span&gt;XPM Restart? 365 - 10,365&lt;/div&gt;&lt;div style=&quot;font-size: 19px;&quot;&gt;&lt;span style=&quot;font-size: 19px;&quot;&gt; &lt;/span&gt;Calculate Restart Plan? 36,500 - 1,365,000&lt;/div&gt;&lt;div style=&quot;font-size: 19px;&quot;&gt;&lt;span style=&quot;font-size: 19px;&quot;&gt; &lt;/span&gt;&lt;/div&gt;&lt;div style=&quot;font-size: 19px;&quot;&gt;Estimated GB-Second Duration per annum?**&lt;/div&gt;&lt;div style=&quot;font-size: 19px;&quot;&gt;&lt;span style=&quot;font-size: 19px;&quot;&gt; &lt;/span&gt;XPM Restart? 912&amp;nbsp; - 25,912 seconds&lt;/div&gt;&lt;div style=&quot;font-size: 19px;&quot;&gt;&lt;span style=&quot;font-size: 19px;&quot;&gt; &lt;/span&gt;Calculate Restart Plan? 9,120 - 259,120 seconds&lt;span style=&quot;font-size: 19px;&quot;&gt; &lt;/span&gt;&lt;/div&gt;&lt;div style=&quot;font-size: 19px;&quot;&gt;&lt;br style=&quot;font-size: 19px;&quot;&gt;&lt;/div&gt;&lt;div style=&quot;font-size: 19px;&quot;&gt;Low estimate Total: ?(0.01 + $0.17) = $0.18&lt;/div&gt;&lt;div style=&quot;font-size: 19px;&quot;&gt;High estimate Total: ($0.25 + $4.75) = $5.00&lt;/div&gt;&lt;div style=&quot;font-size: 19px;&quot;&gt;---------------------------------------------&lt;span style=&quot;font-size: 19px;&quot;&gt; &lt;/span&gt;&lt;/div&gt;&lt;div style=&quot;font-size: 19px;&quot;&gt;Step Function:&lt;/div&gt;&lt;div style=&quot;font-size: 19px;&quot;&gt;$0.025 per 1,000 state transitions&lt;/div&gt;&lt;div style=&quot;font-size: 19px;&quot;&gt;&lt;br style=&quot;font-size: 19px;&quot;&gt;&lt;/div&gt;&lt;div style=&quot;font-size: 19px;&quot;&gt;Executions per annum? 365 - 10,365&lt;/div&gt;&lt;div style=&quot;font-size: 19px;&quot;&gt;Number of transitions per execution? 800***&lt;/div&gt;&lt;div style=&quot;font-size: 19px;&quot;&gt;&lt;br style=&quot;font-size: 19px;&quot;&gt;&lt;/div&gt;&lt;div style=&quot;font-size: 19px;&quot;&gt;Low estimate Total: $7.30&lt;/div&gt;&lt;div style=&quot;font-size: 19px;&quot;&gt;High estimate Total: $207.30&lt;/div&gt;&lt;div style=&quot;font-size: 19px;&quot;&gt;---------------------------------------------&lt;/div&gt;&lt;div style=&quot;font-size: 19px;&quot;&gt;Systems Manager:&lt;/div&gt;&lt;div style=&quot;font-size: 19px;&quot;&gt;&lt;span style=&quot;font-size: 19px;&quot;&gt; &lt;/span&gt;No Additional Charges.&lt;/div&gt;&lt;div style=&quot;font-size: 19px;&quot;&gt;---------------------------------------------&lt;/div&gt;&lt;div style=&quot;font-size: 19px;&quot;&gt;&lt;span style=&quot;font-size: 19px;&quot;&gt; &lt;/span&gt;&lt;/div&gt;&lt;div style=&quot;font-size: 19px;&quot;&gt;*Note: The number of invocations per annum is entirely unknown, but believed to be 365 or greater.&lt;/div&gt;&lt;div style=&quot;font-size: 19px;&quot;&gt;**Note: The GB-Second of the unwritten lambda function is entirely unknown, though I estimated 2.5 GB-Seconds per execution as an high estimate. (20 seconds per run with 128 MB provisioned).&lt;/div&gt;&lt;div style=&quot;font-size: 19px;&quot;&gt;***Note: The number of state transitions in the unwritten step function is estimated at 8 transitions per restart instance batch.&amp;nbsp;&lt;/div&gt;&lt;div style=&quot;font-size: 19px;&quot;&gt;With 1,500 instances being batched at 15 instances per batch, resulted in the estimate of 800 state transitions.&amp;nbsp;Though, if the batch size was significantly higher, then the cost is reduced significantly.&lt;/div&gt;&lt;div style=&quot;font-size: 19px;&quot;&gt;&lt;br style=&quot;font-size: 19px;&quot;&gt;&lt;/div&gt;&lt;div style=&quot;font-size: 19px;&quot;&gt;Low estimate Total: $7.48 per annum&lt;/div&gt;&lt;div style=&quot;font-size: 19px;&quot;&gt;High estimate Total: $213.50 per annum&lt;/div&gt;" style="text;html=1;align=left;verticalAlign=middle;resizable=0;points=[];autosize=1;strokeColor=none;fillColor=none;fontSize=19;" vertex="1" parent="1">
          <mxGeometry x="1285" y="970" width="1680" height="1110" as="geometry" />
        </mxCell>
      </root>
    </mxGraphModel>
  </diagram>
</mxfile>
